<svg viewBox="0 0 278 227" fill="none" xmlns="http://www.w3.org/2000/svg">
<g clip-path="url(#clip0)">
<path opacity="0.1" d="M271.24 131.591C271.24 131.763 271.24 131.936 271.24 132.105C271.21 135.079 271.034 138.045 270.711 141.004C270.713 141.022 270.713 141.04 270.711 141.058C270.686 141.304 270.658 141.547 270.629 141.793C270.581 142.208 270.53 142.621 270.474 143.036C269.814 148.094 268.723 153.087 267.213 157.959C265.189 164.543 262.327 170.84 258.699 176.695C257.583 178.485 256.394 180.218 255.132 181.893C254.459 182.781 253.772 183.649 253.062 184.503C252.564 185.1 252.057 185.688 251.54 186.267L251.218 186.623C248.5 189.606 245.569 192.389 242.45 194.95C237.359 199.168 231.877 202.837 226.308 206.241C225.992 206.436 225.672 206.628 225.352 206.806C225.33 206.822 225.306 206.836 225.282 206.848C217.713 211.422 209.864 215.549 201.778 218.854C192.925 222.481 183.783 225.118 174.404 226.271C161.332 227.877 148.1 226.571 135.107 224.326C124.3 222.471 113.625 219.921 103.146 216.694L101.421 216.154C100.527 215.87 99.634 215.579 98.7421 215.284C93.355 213.503 88.0282 211.524 82.7617 209.347C69.5347 203.903 56.8988 197.122 45.0507 189.11C43.5423 188.096 42.0555 187.06 40.5904 186.001C38.5426 184.527 36.5194 183.01 34.5206 181.45L33.2874 180.494C28.0568 176.401 23.1561 171.903 18.6307 167.042C12.544 160.421 7.34259 152.953 3.92306 144.427C3.38378 143.087 2.88976 141.722 2.44099 140.331L2.39856 140.193C2.17229 139.486 1.96299 138.779 1.77066 138.044C1.48782 136.993 1.23986 135.928 1.02679 134.85C0.981535 134.644 0.941937 134.437 0.905168 134.228C0.22915 130.6 -0.0694223 126.913 0.0142236 123.223C0.0849632 119.991 0.463795 116.773 1.14558 113.612C1.84341 110.336 2.91877 107.152 4.35015 104.123C5.64369 101.399 7.29184 98.8585 9.25176 96.5667C10.629 94.9645 12.1778 93.5179 13.8705 92.2531C16.9393 89.969 20.3419 88.3775 23.8689 87.1196C25.5263 86.526 27.2064 86.0058 28.895 85.5225C30.0914 85.1776 31.2934 84.8497 32.4898 84.5274L36.0197 83.5748C38.2824 82.9586 40.5451 82.3253 42.7739 81.6413C48.8493 79.7869 54.803 77.5424 60.3099 74.1955C61.1811 73.6669 62.0692 73.0874 62.9573 72.4655C64.0887 71.6796 65.203 70.826 66.3061 69.9044C67.4205 68.9716 68.5123 67.9737 69.5531 66.9165C69.7143 66.7525 69.8727 66.5886 70.0311 66.4218C70.8796 65.5285 71.7027 64.5929 72.4664 63.6205C72.8397 63.1456 73.2017 62.6622 73.5468 62.1703C74.0248 61.4891 74.4773 60.7965 74.896 60.0841C76.9946 56.5224 78.29 52.5931 78.1373 48.4519C78.115 47.7696 78.0536 47.0891 77.9534 46.4138C77.5858 43.9177 77.2322 41.481 76.972 39.098C75.8802 29.241 76.3413 20.3027 83.7432 11.9043C92.9468 1.46493 107.391 -0.663647 120.541 0.170257C158.557 2.57303 193.165 24.2658 223.579 50.0914C226.209 52.3227 228.808 54.5841 231.374 56.8757C232.021 57.4524 232.668 58.0328 233.317 58.617C238.125 62.9449 242.86 67.4338 247.27 72.2422C247.626 72.6323 247.982 73.0224 248.333 73.4153C248.548 73.6584 248.766 73.8987 248.978 74.1446C250.353 75.6993 251.687 77.2918 252.98 78.9219C256.445 83.2495 259.505 87.8861 262.121 92.7732C266.128 100.443 268.84 108.721 270.148 117.273C270.641 120.379 270.964 123.509 271.119 126.649C271.167 127.574 271.198 128.501 271.215 129.425C271.215 129.722 271.215 130.016 271.215 130.313C271.243 130.743 271.243 131.161 271.24 131.591Z" fill="#FFB201"/>
<path d="M111.433 126.85L106.908 207.354L111.433 207.413L115.11 125.719L111.433 126.85Z" fill="#3F3D56"/>
<path d="M94.7458 167.637H38.7437V179.793H94.7458V167.637Z" fill="#6C63FF"/>
<path d="M98.4223 178.376V186.009H40.5732C38.5254 184.535 36.5022 183.018 34.5034 181.458V178.376H98.4223Z" fill="#3F3D56"/>
<path d="M109.974 161.006C109.815 161.738 109.609 162.461 109.391 163.182C108.749 165.266 107.977 167.321 107.827 169.486C107.626 172.347 108.393 175.674 106.413 177.752C105.904 178.289 105.239 178.69 104.784 179.264C104.714 179.354 104.649 179.448 104.591 179.547C104.184 180.219 104.136 181.039 104.13 181.808C104.135 183.448 104.242 185.086 104.45 186.713C105.12 192.31 106.444 197.918 104.705 203.201C104.389 204.118 104.022 205.015 103.604 205.89C102.756 207.755 101.831 209.595 101.554 211.617C101.35 213.115 101.412 214.658 101.401 216.182C100.507 215.897 99.6144 215.607 98.7225 215.311C93.3353 213.53 88.0085 211.552 82.7421 209.375C82.7562 209.299 82.7703 209.219 82.7817 209.143C83.1861 206.627 82.6318 204.055 81.9586 201.601C80.5444 196.403 78.5419 191.255 77.3568 186.02C76.8795 183.975 76.5665 181.896 76.4206 179.801C76.3867 179.332 76.3669 178.86 76.364 178.388C76.3499 177.771 76.364 177.155 76.3895 176.533C76.4489 175.292 76.5026 173.82 75.5099 173.065C74.964 172.655 74.2427 172.584 73.6064 172.335C72.3788 171.858 71.5388 170.75 70.5658 169.862C70.1017 169.412 69.535 169.082 68.9146 168.899C68.2942 168.717 67.6388 168.689 67.0049 168.816C60.6467 170.272 55.9741 175.663 50.0571 178.388C49.828 178.495 49.5989 178.597 49.367 178.693C48.6016 178.973 47.8732 179.345 47.1976 179.801C46.723 180.13 46.3787 180.615 46.2247 181.172C46.0748 181.771 46.2049 182.399 46.2784 183.015C46.3974 184.017 46.3545 185.032 46.1511 186.02C46.0744 186.403 45.9734 186.781 45.8485 187.151C45.6222 187.821 45.3196 188.476 45.0311 189.129C43.5226 188.116 42.0358 187.079 40.5707 186.02C38.523 184.546 36.4997 183.029 34.501 181.469L33.2876 180.494C28.0569 176.4 23.1562 171.902 18.6309 167.041C19.2333 165.345 20.1045 163.767 20.5231 162.029C20.7606 161.031 20.8483 159.994 21.1764 159.024C21.5548 158.019 22.081 157.076 22.7377 156.226C25.1428 152.873 28.0796 149.936 31.4322 147.53C34.9365 145.02 38.984 143.007 42.1376 140.158C43.4175 139.038 44.5207 137.732 45.4101 136.283C45.4638 136.195 45.5147 136.102 45.56 136C45.8062 135.488 45.9767 134.944 46.0663 134.383C46.2926 133.117 46.2586 131.726 46.3717 130.51C50.2135 131.175 54.1301 131.293 58.0049 130.861C62.5162 130.355 66.9285 129.102 71.4398 128.616C71.7792 128.577 72.1214 128.546 72.4637 128.517C73.909 128.401 75.3571 128.376 76.8081 128.393C78.0215 128.393 79.2349 128.447 80.4482 128.486L93.8067 128.939C95.286 128.989 96.7963 129.046 98.1738 129.586C99.8086 130.228 101.118 131.505 102.167 132.91C102.3 133.091 102.433 133.272 102.558 133.459C103.421 134.717 104.114 136.085 104.617 137.526C104.671 137.673 104.722 137.809 104.77 137.97C104.897 138.363 105.007 138.759 105.106 139.16C105.183 139.474 105.25 139.788 105.313 140.104C105.624 141.67 105.808 143.27 106.3 144.783C106.334 144.893 106.37 145.003 106.41 145.111C107.001 146.767 107.983 148.251 108.724 149.843C109.258 150.995 109.666 152.201 109.94 153.441C110.494 155.931 110.505 158.511 109.974 161.006Z" fill="#35323E"/>
<path d="M69.3693 59.8431C68.1757 58.8933 66.4447 59.5887 65.0475 60.2021C63.876 60.7193 62.6701 61.1547 61.4384 61.5053C61.1864 61.6023 60.9131 61.6305 60.6465 61.5873C60.0808 61.4516 59.8432 60.7816 59.4218 60.3746C58.6893 59.6707 57.49 59.8375 56.5453 60.2191C55.6006 60.6007 54.6673 61.152 53.6547 61.0671C52.5743 60.9823 51.6352 60.1852 50.5435 60.1597C48.6202 60.1145 47.0052 62.4834 45.1865 61.8558C44.0778 61.4742 43.2066 60.0325 42.1149 60.4424C41.2663 60.7647 41.19 61.9378 40.678 62.7039C40.0756 63.5971 38.9018 63.8487 37.8977 64.2445C34.7328 65.4939 32.6369 69.0189 33.0499 72.3941C33.279 74.257 34.1812 75.9644 34.778 77.7424C36.5486 82.9126 35.9405 88.7443 38.1721 93.7308C38.4549 93.465 38.6133 93.3661 38.8877 93.1032C38.1821 94.5658 38.046 96.2384 38.5058 97.7957C38.7406 98.5787 39.1224 99.308 39.4109 100.074C39.7106 100.933 39.9525 101.812 40.135 102.703L42.5957 113.552C43.5573 117.792 44.5218 122.033 44.6887 126.375C44.7926 129.198 44.5763 132.024 44.0438 134.798C48.5014 134.061 52.5799 132.085 57.0969 132.11C58.7543 132.11 60.3976 132.393 62.0409 132.619C66.832 133.289 71.6647 133.617 76.5025 133.6C77.2549 133.643 78.0084 133.537 78.7199 133.289C79.3422 133.023 79.8513 132.551 80.4396 132.209C81.5908 131.531 82.9852 131.361 84.3117 131.361C90.3616 131.251 96.1909 133.464 102.201 134.244C104.574 129.266 104.716 123.302 102.894 118.098C102.354 116.551 101.627 115.045 101.412 113.419C101.326 112.42 101.303 111.417 101.344 110.414C101.335 107.849 100.872 105.306 99.9781 102.901C99.6274 101.96 99.206 101.001 99.2428 99.9978C99.2795 98.9942 99.7745 98.0586 100.261 97.171C101.248 95.3618 102.241 93.5357 103.635 92.0092C105.064 90.4319 106.851 89.2305 108.619 88.0517L112.983 85.1232C112.386 81.355 111.617 77.3862 110.019 73.9206C108.421 70.4549 106.031 67.2691 102.798 65.2423C101.708 64.587 100.567 64.0198 99.387 63.5463C97.7352 62.8509 96.0156 62.2374 94.2252 62.1329C92.1887 62.017 90.1834 62.5625 88.1724 62.9017C81.8425 63.9674 74.3925 63.8374 69.3693 59.8431Z" fill="#6C63FF"/>
<path d="M117.09 125.233L115.014 127.853L111.099 132.791L106.574 138.499L105.31 140.093H102.857L42.1347 140.164L4.10693 140.206H2.4099C2.18362 139.499 1.97432 138.793 1.78199 138.058C1.49915 137.006 1.2512 135.941 1.03812 134.863C0.992871 134.657 0.953273 134.451 0.916504 134.242L14.7134 125.227L19.9007 125.199L35.768 125.108L44.6293 125.057H46.2472H47.2626L53.1683 125.026L98.1793 124.769L100.482 124.755H101.48L104.125 124.741L113.965 124.684L115.854 123.966L115.993 124.113L117.09 125.233Z" fill="#3F3D56"/>
<path d="M116.241 123.819L116.007 124.102L114.462 125.92L111.283 129.671L104.617 137.526L45.5598 136.02L1.02679 134.889C0.981535 134.683 0.941937 134.476 0.905168 134.267C0.22915 130.639 -0.0694223 126.951 0.0142236 123.262L4.9526 120.735L6.08396 120.153L14.8887 115.63L22.6159 111.672L42.771 114.29L47.2343 114.87L49.2537 115.13L52.2094 115.514L52.4583 115.548L98.8072 121.555L103.929 122.219L106.936 122.609L116.202 123.814L116.241 123.819Z" fill="#504F60"/>
<path d="M106.625 137.388L106.577 138.499L106.294 144.771L104.772 179.258L104.45 186.713L103.601 205.89L103.123 216.722L101.398 216.182C100.504 215.897 99.6111 215.607 98.7192 215.311L102.857 140.118L102.945 138.541L104.766 137.976L106.625 137.388Z" fill="#3F3D56"/>
<path d="M4.23687 137.306L4.10959 140.209L3.92292 144.449C3.38363 143.109 2.88961 141.744 2.44084 140.353L2.39841 140.215C2.17214 139.508 1.96284 138.801 1.77051 138.066L4.23687 137.306Z" fill="#3F3D56"/>
<path d="M78.1996 94.5647C85.3851 94.5647 91.2102 86.718 91.2102 77.0386C91.2102 67.3592 85.3851 59.5125 78.1996 59.5125C71.014 59.5125 65.189 67.3592 65.189 77.0386C65.189 86.718 71.014 94.5647 78.1996 94.5647Z" fill="#A1616A"/>
<path opacity="0.1" d="M78.1996 94.5647C85.3851 94.5647 91.2102 86.718 91.2102 77.0386C91.2102 67.3592 85.3851 59.5125 78.1996 59.5125C71.014 59.5125 65.189 67.3592 65.189 77.0386C65.189 86.718 71.014 94.5647 78.1996 94.5647Z" fill="black"/>
<path d="M80.0378 84.5296C90.0351 84.5296 98.1395 76.4298 98.1395 66.4382C98.1395 56.4465 90.0351 48.3467 80.0378 48.3467C70.0405 48.3467 61.936 56.4465 61.936 66.4382C61.936 76.4298 70.0405 84.5296 80.0378 84.5296Z" fill="#A1616A"/>
<path d="M80.3971 38.5546C79.2919 38.6427 78.1945 38.8099 77.1133 39.0549C74.251 39.7503 71.7761 41.2938 69.3663 42.8089C68.2859 43.4902 67.1743 44.1997 66.504 45.2004C65.2991 46.9954 65.7658 49.2794 65.0898 51.2723C64.7391 52.2956 64.0942 53.2143 63.5483 54.167C62.0464 56.7789 61.2601 59.6481 60.488 62.4891C60.3296 63.077 60.2843 63.8742 60.9264 64.1003C61.2961 64.1771 61.6807 64.1335 62.0238 63.9759C64.0518 63.306 66.6284 63.1138 68.1331 64.4735C69.6378 65.8332 69.5106 68.2444 71.3009 69.279C73.3515 70.4748 76.5533 69.0303 78.4144 70.4408C79.212 71.0458 79.5005 72.0153 80.1538 72.7447C81.6755 74.4407 84.6029 74.3588 87.0381 74.0167C88.4354 73.8188 90.1494 73.686 90.9979 74.6669C91.4052 75.1305 91.5211 75.7665 91.9935 76.1849C92.842 76.9424 94.3948 76.558 95.2235 75.7806C96.0522 75.0033 96.4482 73.9517 97.1383 73.0782C98.4818 71.3821 100.844 70.4578 102.229 68.7815C103.389 67.3681 103.74 65.5985 104.057 63.8911L105.236 57.562C105.714 54.9952 106.15 52.191 104.704 49.9296C104.19 49.1155 103.451 48.4144 103.007 47.5721C102.71 47.0067 102.543 46.4103 102.198 45.876C101.789 45.3194 101.3 44.826 100.747 44.4117L97.9557 42.1022C97.0013 41.2672 95.9806 40.511 94.9039 39.8408C90.9187 37.52 84.9508 38.1306 80.3971 38.5546Z" fill="#464353"/>
<path d="M20.7744 85.1571C20.1041 85.8695 19.4847 86.6383 18.7662 87.3055C18.1343 87.8672 17.4734 88.3956 16.7864 88.8885C15.6776 89.7177 14.5934 90.5761 13.5337 91.4637C12.4281 92.3373 11.4277 93.3362 10.5526 94.4403C9.04223 96.4671 8.32664 98.9886 6.91245 101.083C5.6623 102.94 3.90021 104.408 2.63026 106.251C2.07313 107.026 1.65931 107.894 1.40839 108.815C1.2211 109.706 1.13664 110.615 1.15666 111.525C1.13121 113.018 1.10858 114.527 1.41405 115.989C1.71952 117.45 2.38984 118.886 3.53817 119.845C4.60448 120.735 5.98191 121.145 7.33105 121.484C8.02683 121.657 8.77918 121.818 9.44103 121.544C9.92533 121.299 10.3457 120.945 10.6686 120.509L14.1107 116.551C16.413 113.894 18.8058 111.181 21.9652 109.626C22.9551 109.142 23.9988 108.778 24.9915 108.309C29.2002 106.282 32.1757 102.132 33.3296 97.6091C33.6125 96.5039 33.7935 95.376 33.9773 94.2481L34.4751 91.1556C34.5134 91.0005 34.5134 90.8385 34.4751 90.6835C34.3972 90.5092 34.2717 90.3603 34.1131 90.2538C31.7155 88.3186 29.4707 86.2017 27.3985 83.9218C26.9064 83.3791 26.4453 82.6356 25.8768 82.1805C25.1641 81.6151 25.2178 81.6575 24.3608 82.1805C23.0425 83.0147 21.8371 84.0152 20.7744 85.1571Z" fill="#A1616A"/>
<path d="M44.3209 105.736C44.2922 105.671 44.2506 105.611 44.1986 105.562C44.1465 105.513 44.085 105.475 44.0178 105.45C43.9506 105.425 43.879 105.414 43.8074 105.418C43.7359 105.421 43.6657 105.439 43.6013 105.47C43.5368 105.502 43.4793 105.546 43.4323 105.6C43.3852 105.654 43.3496 105.717 43.3275 105.785C43.3054 105.853 43.2974 105.925 43.3038 105.996C43.3102 106.067 43.331 106.137 43.3649 106.2L43.082 106.338L51.5163 123.616L53.0408 122.872L44.6065 105.584L44.3209 105.736Z" fill="#3F3D56"/>
<path opacity="0.04" d="M20.7744 85.1571C20.1041 85.8695 19.4847 86.6383 18.7662 87.3055C18.1343 87.8672 17.4734 88.3956 16.7864 88.8885C15.6776 89.7177 14.5934 90.5761 13.5337 91.4637C12.4281 92.3373 11.4277 93.3362 10.5526 94.4403C9.04223 96.4671 8.32664 98.9886 6.91245 101.083C5.6623 102.94 3.90021 104.408 2.63026 106.251C2.07313 107.026 1.65931 107.894 1.40839 108.815C1.2211 109.706 1.13664 110.615 1.15666 111.525C1.13121 113.018 1.10858 114.527 1.41405 115.989C1.71952 117.45 2.38984 118.886 3.53817 119.845C4.60448 120.735 5.98191 121.145 7.33105 121.484C8.02683 121.657 8.77918 121.818 9.44103 121.544C9.92533 121.299 10.3457 120.945 10.6686 120.509L14.1107 116.551C16.413 113.894 18.8058 111.181 21.9652 109.626C22.9551 109.142 23.9988 108.778 24.9915 108.309C29.2002 106.282 32.1757 102.132 33.3296 97.6091C33.6125 96.5039 33.7935 95.376 33.9773 94.2481L34.4751 91.1556C34.5134 91.0005 34.5134 90.8385 34.4751 90.6835C34.3972 90.5092 34.2717 90.3603 34.1131 90.2538C31.7155 88.3186 29.4707 86.2017 27.3985 83.9218C26.9064 83.3791 26.4453 82.6356 25.8768 82.1805C25.1641 81.6151 25.2178 81.6575 24.3608 82.1805C23.0425 83.0147 21.8371 84.0152 20.7744 85.1571Z" fill="black"/>
<path d="M118.28 116.998C118.252 118.802 118.181 120.659 117.432 122.304C117.109 123.016 116.609 123.717 115.859 123.952C115.406 124.057 114.936 124.074 114.476 124.003C108.927 123.516 103.336 123.959 97.9329 125.315C99.3753 122.431 98.5466 118.974 98.9454 115.774C99.0557 114.901 99.2566 114.041 99.3329 113.165C99.6158 110.056 98.2836 107.037 97.6727 103.967C97.1423 101.309 97.1423 98.5733 97.6727 95.9159C97.7767 95.2319 98.012 94.5744 98.3656 93.9796C98.7799 93.4008 99.3244 92.9273 99.9552 92.5973C102.246 91.2941 104.947 91.1443 107.521 91.3167C109.255 91.4326 112.731 91.2687 114.176 92.3344C115.757 93.5018 116.258 97.4226 116.685 99.2346C117.325 102.014 117.759 104.836 117.986 107.678C118.263 110.776 118.323 113.889 118.28 116.998Z" fill="#A1616A"/>
<path d="M16.9648 123.257L27.1471 130.041L72.967 128.345L42.7032 123.257H16.9648Z" fill="white"/>
<path d="M30.3909 69.3526C28.7193 70.8254 27.3023 72.561 25.7184 74.1299C23.5462 76.2839 21.077 78.1157 18.6191 79.939C19.5004 80.1851 20.3026 80.6558 20.9471 81.305C21.5917 81.9541 22.0565 82.7594 22.2961 83.6421C22.4035 84.0576 22.4573 84.4901 22.5789 84.8972C22.8617 85.8611 23.484 86.6922 24.1515 87.4413C27.0195 90.6723 31.033 93.0638 32.7243 97.0524C32.7795 97.2464 32.8992 97.4159 33.0637 97.5329C33.2014 97.5938 33.3542 97.6116 33.5021 97.5838C35.0323 97.4227 36.2033 96.1902 37.1791 94.9916C39.2155 92.4475 40.9832 89.6377 41.9873 86.5339C42.9914 83.43 43.1526 79.9983 42.058 76.9228C41.5122 75.3906 40.6693 73.9829 39.8321 72.5893C39.0986 71.37 38.367 70.1526 37.6373 68.9371C37.2554 68.2954 36.7689 66.9922 36.0194 66.6756C34.4016 65.9803 31.4289 68.3152 30.3909 69.3526Z" fill="#6C63FF"/>
<path d="M113.699 87.6222L116.106 93.2758C113.486 92.3607 110.685 92.0822 107.936 92.4631C105.186 92.8441 102.567 93.8736 100.295 95.4665C98.9233 96.4474 97.6646 97.6799 97.0452 99.2459C96.7395 99.304 96.4236 99.2746 96.1338 99.1611C95.8441 99.0476 95.5924 98.8545 95.4076 98.6043C95.0456 98.0967 94.8356 97.4967 94.8023 96.8743C94.5789 94.7033 95.4019 92.5747 96.2165 90.5451C96.5955 89.5953 96.9858 88.6257 97.659 87.854C98.3321 87.0823 99.2259 86.5734 100.12 86.0929C102.971 84.5168 105.957 83.1981 109.043 82.1523C110.344 81.7311 111.708 81.7396 112.437 82.9551C113.283 84.4053 113.037 86.0787 113.699 87.6222Z" fill="#6C63FF"/>
<path d="M17.0242 104.586C17.6267 105.066 18.1556 105.634 18.775 106.092C19.4301 106.547 20.1271 106.938 20.8567 107.26L23.6455 108.6C24.5097 109.049 25.414 109.416 26.3466 109.697C27.5402 110.016 28.7932 110.047 29.9924 110.344C31.5056 110.717 32.8887 111.494 34.3792 111.944C35.8698 112.393 37.6149 112.467 38.8594 111.531C39.6372 110.946 40.2255 109.979 41.19 109.835C41.8123 109.753 42.4119 110.053 42.9662 110.344L50.2239 114.157C51.2025 114.672 52.2377 115.243 52.7496 116.224C53.2616 117.205 52.9165 118.694 51.8389 118.949C51.4633 118.992 51.0856 119.014 50.7076 119.014C50.3342 119.059 49.9269 119.279 49.876 119.655C49.8741 119.889 49.9357 120.118 50.0542 120.32C50.3795 121.066 50.4756 121.959 50.0966 122.683C49.7176 123.407 48.7871 123.856 48.0432 123.531C48.1705 124.625 46.9797 125.391 45.9191 125.682C43.2434 126.414 40.4065 125.965 37.6715 125.501C36.5967 125.32 35.5049 125.134 34.5263 124.653C34.0568 124.424 33.6212 124.13 33.1461 123.918C31.8422 123.339 30.3601 123.415 28.9346 123.44C22.3416 123.556 15.8052 122.335 9.32249 121.12C8.12042 120.893 6.88441 120.653 5.85771 119.989C3.87783 118.7 3.14245 116.054 3.46772 113.713C3.79298 111.373 4.98091 109.253 6.14903 107.195L7.66222 104.529C7.86003 104.121 8.1369 103.756 8.4768 103.455C10.7027 101.756 15.1179 103.054 17.0242 104.586Z" fill="#A1616A"/>
<path opacity="0.04" d="M17.0242 104.586C17.6267 105.066 18.1556 105.634 18.775 106.092C19.4301 106.547 20.1271 106.938 20.8567 107.26L23.6455 108.6C24.5097 109.049 25.414 109.416 26.3466 109.697C27.5402 110.016 28.7932 110.047 29.9924 110.344C31.5056 110.717 32.8887 111.494 34.3792 111.944C35.8698 112.393 37.6149 112.467 38.8594 111.531C39.6372 110.946 40.2255 109.979 41.19 109.835C41.8123 109.753 42.4119 110.053 42.9662 110.344L50.2239 114.157C51.2025 114.672 52.2377 115.243 52.7496 116.224C53.2616 117.205 52.9165 118.694 51.8389 118.949C51.4633 118.992 51.0856 119.014 50.7076 119.014C50.3342 119.059 49.9269 119.279 49.876 119.655C49.8741 119.889 49.9357 120.118 50.0542 120.32C50.3795 121.066 50.4756 121.959 50.0966 122.683C49.7176 123.407 48.7871 123.856 48.0432 123.531C48.1705 124.625 46.9797 125.391 45.9191 125.682C43.2434 126.414 40.4065 125.965 37.6715 125.501C36.5967 125.32 35.5049 125.134 34.5263 124.653C34.0568 124.424 33.6212 124.13 33.1461 123.918C31.8422 123.339 30.3601 123.415 28.9346 123.44C22.3416 123.556 15.8052 122.335 9.32249 121.12C8.12042 120.893 6.88441 120.653 5.85771 119.989C3.87783 118.7 3.14245 116.054 3.46772 113.713C3.79298 111.373 4.98091 109.253 6.14903 107.195L7.66222 104.529C7.86003 104.121 8.1369 103.756 8.4768 103.455C10.7027 101.756 15.1179 103.054 17.0242 104.586Z" fill="black"/>
<path d="M103.364 109.47C101.89 110.166 100.199 110.234 98.6603 110.768C97.1216 111.302 95.8149 112.263 94.4035 113.046C90.7266 115.099 86.484 115.873 82.3178 116.611C79.7921 117.063 77.2267 117.515 74.6812 117.408C71.2362 117.261 67.927 116.113 64.5894 115.248C61.2519 114.383 57.691 113.801 54.3846 114.773C52.658 115.299 51.0796 116.224 49.7774 117.472C48.4752 118.721 47.4857 120.259 46.8894 121.962C46.1964 123.994 46.1002 126.185 46.2332 128.328C46.929 128.84 47.9019 128.13 48.2809 127.353C48.6599 126.575 48.8664 125.623 49.6018 125.17C50.8774 125.603 51.1885 127.302 52.2407 128.141C52.8969 128.667 53.7737 128.806 54.608 128.924L58.9072 129.535C59.9424 129.682 61.1445 129.781 61.894 129.052C62.2589 128.698 62.4597 128.204 62.7934 127.825C63.4779 127.067 64.6206 126.937 65.6388 127.039C68.8179 127.355 71.799 129.416 74.9555 128.927C76.0416 128.76 77.0513 128.297 78.0865 127.932C84.2213 125.767 91.0378 127.084 97.4214 125.843C99.8567 125.371 102.201 124.534 104.518 123.652C105.777 123.175 107.049 122.674 108.124 121.866C109.142 121.083 109.945 120.055 110.458 118.878C110.97 117.701 111.175 116.413 111.054 115.135C110.818 113.188 109.845 111.404 108.336 110.149C107.838 109.725 107.185 108.914 106.588 108.648C105.448 108.147 104.331 109.015 103.364 109.47Z" fill="#A1616A"/>
<g opacity="0.1">
<path opacity="0.1" d="M95.0993 73.358C94.627 72.9397 94.511 72.3036 94.1037 71.84C93.2552 70.8591 91.5412 70.992 90.144 71.1899C87.7087 71.5319 84.77 71.6111 83.2596 69.9178C82.6063 69.1885 82.3178 68.2217 81.5202 67.614C79.6591 66.2006 76.4574 67.6479 74.4068 66.4522C72.6164 65.4091 72.7324 62.9894 71.239 61.6466C69.7456 60.3039 67.1576 60.4792 65.1296 61.1491C64.7865 61.3066 64.4019 61.3502 64.0322 61.2735C63.3902 61.0473 63.4354 60.2502 63.5938 59.6622C64.366 56.8213 65.1523 53.9521 66.6541 51.3401C67.2 50.3875 67.8449 49.4688 68.1956 48.4455C68.8094 46.6533 68.4954 44.6265 69.3015 42.9304C68.436 43.4958 67.6045 44.112 67.0699 44.9092C65.865 46.7042 66.3317 48.9882 65.6557 50.9811C65.305 52.0044 64.6601 52.9231 64.1142 53.8758C62.6124 56.4877 61.8261 59.3569 61.0539 62.1978C60.8955 62.7858 60.8503 63.583 61.4923 63.8091C61.862 63.8859 62.2466 63.8423 62.5897 63.6847C64.6177 63.0148 67.1944 62.8226 68.6991 64.1823C70.2038 65.5419 70.0765 67.9532 71.8669 68.9878C73.9175 70.1835 77.1192 68.739 78.9803 70.1496C79.7779 70.7546 80.0664 71.7241 80.7197 72.4535C82.2414 74.1495 85.1688 74.0676 87.6041 73.7255C89.0013 73.5276 90.7153 73.3948 91.5638 74.3757C91.9711 74.8393 92.0871 75.4753 92.5594 75.8937C93.4079 76.6512 94.9607 76.2668 95.7894 75.4894C96.3208 74.9364 96.7755 74.3146 97.1414 73.6407C96.406 73.864 95.6226 73.8301 95.0993 73.358Z" fill="black"/>
<path opacity="0.1" d="M100.252 70.2485C100.07 70.483 99.9012 70.7274 99.7461 70.9806C100.832 70.2061 101.983 69.4824 102.795 68.4959C103.006 68.2406 103.195 67.9683 103.361 67.6818C102.232 68.4902 101.056 69.2337 100.252 70.2485Z" fill="black"/>
</g>
<path d="M157.395 126.225L158.243 207.354L162.203 206.788L161.354 126.225H157.395Z" fill="#3F3D56"/>
<path d="M181.153 140.924L182.001 222.053L185.961 221.488L185.113 140.924H181.153Z" fill="#3F3D56"/>
<path d="M255.124 181.907L255.107 180.349V179.422L254.957 165.153L254.722 142.844L254.682 140.919H250.723L250.742 142.773L250.867 154.722L250.921 159.895L250.966 164.084L251.039 171.326L251.085 175.598V176.05L251.144 181.664L251.195 186.614L251.517 186.257C252.036 185.679 252.543 185.091 253.039 184.494L255.124 181.907Z" fill="#3F3D56"/>
<path d="M176.769 154.069L174.506 157.45L176.769 172.853L196.002 178.113H227.114L245.782 179.241L254.674 173.158L253.136 162.71L246.348 154.069H176.769Z" fill="#6C63FF"/>
<path d="M174.506 157.45L173.375 166.84C173.375 166.84 167.435 185.251 215.235 184.123C263.035 182.995 254.833 179.239 254.833 179.239L254.55 168.344C254.55 168.344 256.216 173.5 231.923 172.802C207.63 172.104 184.971 169.848 184.971 169.848C184.971 169.848 176.486 171.349 174.506 157.45Z" fill="#3F3D56"/>
<path d="M214.33 73.279C211.604 74.5199 209.539 76.9255 208.156 79.5855C206.773 82.2455 205.995 85.1656 205.228 88.0659C204.42 91.1245 203.608 94.1916 203.189 97.3265C202.442 102.901 203.003 108.761 205.565 113.767C208.128 118.773 212.862 122.813 218.406 123.777C220.547 124.153 222.748 124.076 224.911 123.853C228.822 123.439 232.675 122.591 236.397 121.323C240.286 120.009 244.334 117.985 246.065 114.256C247.069 112.094 247.154 109.629 247.106 107.249C246.972 100.761 245.992 94.3193 244.19 88.0857C243.666 86.2766 243.058 84.4533 241.95 82.9296C240.841 81.406 239.325 80.2894 237.778 79.2548C231.162 74.8026 222.468 69.5815 214.33 73.279Z" fill="#FBBEBE"/>
<path opacity="0.05" d="M214.33 73.279C211.604 74.5199 209.539 76.9255 208.156 79.5855C206.773 82.2455 205.995 85.1656 205.228 88.0659C204.42 91.1245 203.608 94.1916 203.189 97.3265C202.442 102.901 203.003 108.761 205.565 113.767C208.128 118.773 212.862 122.813 218.406 123.777C220.547 124.153 222.748 124.076 224.911 123.853C228.822 123.439 232.675 122.591 236.397 121.323C240.286 120.009 244.334 117.985 246.065 114.256C247.069 112.094 247.154 109.629 247.106 107.249C246.972 100.761 245.992 94.3193 244.19 88.0857C243.666 86.2766 243.058 84.4533 241.95 82.9296C240.841 81.406 239.325 80.2894 237.778 79.2548C231.162 74.8026 222.468 69.5815 214.33 73.279Z" fill="black"/>
<path d="M211.267 108.86C212.056 109.944 213.011 110.898 214.095 111.687C216.788 113.547 220.244 113.798 223.514 113.9C226.139 113.979 229.148 113.829 230.794 111.783C231.535 110.861 231.869 109.685 232.169 108.54C234.019 101.51 235.333 94.3503 236.1 87.1217L243.59 87.1472C246.831 101.018 246.565 115.438 246.282 129.682L245.872 150.453L241.047 149.942C229.589 148.729 218.114 147.516 206.594 147.307C199.845 147.183 193.093 147.406 186.366 147.974L196.873 116.749C198.236 112.69 199.614 108.577 199.934 104.311C200.395 98.1236 198.658 91.5909 201.065 85.8666C201.257 85.4059 201.5 84.9281 201.939 84.6878C202.377 84.4476 202.932 84.5069 203.435 84.572C204.385 84.6992 207.29 84.572 207.98 85.1797C208.999 86.0617 208.325 86.1945 207.966 87.6164C207.324 90.1605 206.716 92.5152 206.724 95.1668C206.733 99.9808 208.226 105.063 211.267 108.86Z" fill="#6C63FF"/>
<path d="M255.124 181.907C256.386 180.234 257.574 178.501 258.691 176.709C258.125 175.499 257.503 174.317 257.008 173.082C256.25 171.188 255.814 169.181 255.384 167.188C255.237 166.509 255.091 165.831 254.946 165.153C253.362 157.772 251.874 150.286 251.566 142.804C251.538 142.182 251.52 141.56 251.512 140.938C251.512 140.848 251.512 140.76 251.512 140.656C251.512 139.974 251.512 139.293 251.512 138.615C251.546 136.919 251.654 135.208 251.849 133.507C251.886 133.173 251.928 132.84 251.973 132.506C251.973 132.432 251.99 132.362 252.001 132.288L271.235 131.587L272.852 131.528C273.964 131.488 275.141 131.426 276.057 130.796C277.598 129.739 277.779 127.57 277.754 125.708C277.66 120.999 277.126 116.31 276.159 111.701C275.429 108.235 274.388 104.693 272.052 102.03C270.134 99.8424 267.357 98.2509 266.358 95.5287C265.988 94.5167 265.895 93.4058 265.414 92.439C264.933 91.4722 264.138 90.7627 263.389 90.0164C260.751 87.404 258.562 84.3745 256.912 81.0498C255.766 78.7432 254.524 76.1991 253.028 74.6048C252.955 74.5228 252.881 74.4465 252.805 74.373C251.532 73.115 250.075 72.5638 248.35 73.4203C248.04 73.5759 247.744 73.7595 247.468 73.9687C246.853 74.4383 246.29 74.9728 245.79 75.563C244.048 77.5658 242.518 79.7448 241.228 82.0647C240.321 83.698 239.542 85.3991 238.898 87.1529C238.389 88.5384 237.969 89.9546 237.639 91.3931C237.396 92.4588 237.203 93.5358 237.051 94.6156C236.485 98.6749 236.485 102.813 236.564 106.923C236.649 110.7 236.816 114.485 237.158 118.248C237.243 119.158 237.337 120.067 237.441 120.975C237.648 122.771 237.905 124.562 238.21 126.346C238.332 127.028 238.456 127.709 238.595 128.387C238.629 128.568 238.666 128.749 238.702 128.927L238.719 129.004C239.093 130.581 239.383 132.176 239.588 133.784C239.61 133.985 239.627 134.186 239.639 134.386C239.686 135.31 239.679 136.236 239.616 137.159C239.551 138.25 239.449 139.338 239.398 140.429C239.398 140.622 239.398 140.811 239.378 140.995C239.364 141.546 239.378 142.097 239.378 142.648C239.436 143.967 239.593 145.28 239.848 146.575C240.325 148.984 241.149 151.311 242.294 153.484C242.402 153.687 242.512 153.888 242.623 154.086C244.057 156.647 245.867 158.996 247.193 161.616C248.337 163.974 249.192 166.462 249.739 169.025C249.927 169.871 250.106 170.719 250.276 171.569C250.539 172.926 250.774 174.294 251.014 175.663C251.037 175.798 251.062 175.945 251.088 176.07C251.408 177.884 251.744 179.691 252.177 181.463C252.429 182.495 252.711 183.513 253.042 184.513L255.124 181.907Z" fill="#464353"/>
<path d="M251.345 159.626C251.345 159.881 251.328 160.135 251.317 160.392C251.266 161.633 251.152 162.869 250.975 164.098C250.74 165.775 250.33 167.423 249.75 169.014C249.366 170.06 248.877 171.065 248.291 172.013C247.771 172.855 247.162 173.639 246.475 174.351C244.778 176.115 242.334 176.677 239.969 177.421C238.881 177.736 237.83 178.165 236.833 178.701C236.655 178.8 236.479 178.908 236.309 179.021L233.351 180.98C232.429 181.587 231.487 182.218 230.853 183.12C230.75 183.273 230.655 183.433 230.571 183.597C230.17 184.427 229.878 185.305 229.7 186.209C228.161 192.615 226.619 199.026 225.564 205.528C225.494 205.957 225.426 206.39 225.352 206.822L225.327 206.958C225.314 206.926 225.299 206.895 225.282 206.865C217.713 211.438 209.864 215.566 201.778 218.87L200.021 204.171C199.838 202.976 199.777 201.765 199.84 200.558C200.007 198.656 200.782 196.852 200.991 194.955C201.19 193.098 200.838 191.224 199.982 189.565C199.648 188.92 199.229 188.287 199.153 187.566C199.076 186.845 199.492 186.187 200.216 186.113C200.782 185.486 200.827 184.629 200.66 183.781C200.572 183.338 200.439 182.906 200.264 182.489C199.784 181.308 199.175 180.021 199.588 178.814C199.698 178.596 199.746 178.352 199.73 178.108C199.733 178.093 199.733 178.077 199.73 178.062C199.634 177.746 199.257 177.607 199.062 177.339C198.695 176.838 199.062 176.157 199.289 175.581C199.509 174.961 199.636 174.312 199.668 173.655C199.699 173.291 199.721 172.923 199.761 172.562C199.816 172.072 199.904 171.586 200.024 171.109C200.711 168.401 202.363 166.036 204.671 164.46C205.771 163.719 206.996 163.179 208.119 162.481C209.269 161.706 210.367 160.856 211.405 159.937C213.896 157.864 216.486 155.91 219.175 154.074C222.066 152.101 225.061 150.283 228.147 148.63C228.807 148.274 229.467 147.927 230.127 147.59C230.845 147.213 231.568 146.856 232.296 146.518C234.627 145.407 237.271 145.823 239.848 146.563C240.928 146.872 241.995 147.239 243.024 147.573C244.03 147.899 244.997 148.333 245.909 148.867C248.192 150.207 250.078 152.186 250.862 154.685C250.863 154.701 250.863 154.717 250.862 154.733C251.359 156.299 251.39 157.978 251.345 159.626Z" fill="#F86D70"/>
<path opacity="0.1" d="M251.345 159.626C251.345 159.881 251.328 160.135 251.317 160.392C251.266 161.633 251.152 162.869 250.975 164.098C250.74 165.775 250.33 167.423 249.75 169.014C249.366 170.06 248.877 171.065 248.291 172.013C247.771 172.855 247.162 173.639 246.475 174.351C244.778 176.115 242.334 176.677 239.969 177.421C238.881 177.736 237.83 178.165 236.833 178.701C236.655 178.8 236.479 178.908 236.309 179.021L233.351 180.98C232.429 181.587 231.487 182.218 230.853 183.12C230.75 183.273 230.655 183.433 230.571 183.597C230.17 184.427 229.878 185.305 229.7 186.209C228.161 192.615 226.619 199.026 225.564 205.528C225.494 205.957 225.426 206.39 225.352 206.822L225.327 206.958C225.314 206.926 225.299 206.895 225.282 206.865C217.713 211.438 209.864 215.566 201.778 218.87L200.021 204.171C199.838 202.976 199.777 201.765 199.84 200.558C200.007 198.656 200.782 196.852 200.991 194.955C201.19 193.098 200.838 191.224 199.982 189.565C199.648 188.92 199.229 188.287 199.153 187.566C199.076 186.845 199.492 186.187 200.216 186.113C200.782 185.486 200.827 184.629 200.66 183.781C200.572 183.338 200.439 182.906 200.264 182.489C199.784 181.308 199.175 180.021 199.588 178.814C199.698 178.596 199.746 178.352 199.73 178.108C199.733 178.093 199.733 178.077 199.73 178.062C199.634 177.746 199.257 177.607 199.062 177.339C198.695 176.838 199.062 176.157 199.289 175.581C199.509 174.961 199.636 174.312 199.668 173.655C199.699 173.291 199.721 172.923 199.761 172.562C199.816 172.072 199.904 171.586 200.024 171.109C200.711 168.401 202.363 166.036 204.671 164.46C205.771 163.719 206.996 163.179 208.119 162.481C209.269 161.706 210.367 160.856 211.405 159.937C213.896 157.864 216.486 155.91 219.175 154.074C222.066 152.101 225.061 150.283 228.147 148.63C228.807 148.274 229.467 147.927 230.127 147.59C230.845 147.213 231.568 146.856 232.296 146.518C234.627 145.407 237.271 145.823 239.848 146.563C240.928 146.872 241.995 147.239 243.024 147.573C244.03 147.899 244.997 148.333 245.909 148.867C248.192 150.207 250.078 152.186 250.862 154.685C250.863 154.701 250.863 154.717 250.862 154.733C251.359 156.299 251.39 157.978 251.345 159.626Z" fill="black"/>
<path d="M224.49 112.803C224.461 112.738 224.42 112.678 224.368 112.629C224.315 112.58 224.254 112.542 224.187 112.517C224.119 112.492 224.048 112.481 223.976 112.485C223.905 112.488 223.835 112.506 223.77 112.537C223.706 112.569 223.648 112.613 223.601 112.667C223.554 112.721 223.519 112.784 223.496 112.852C223.474 112.92 223.466 112.992 223.473 113.063C223.479 113.134 223.5 113.204 223.534 113.267L223.251 113.405L231.685 130.683L233.21 129.939L224.775 112.651L224.49 112.803Z" fill="#3F3D56"/>
<path d="M235.034 94.706C245.031 94.706 253.136 86.6062 253.136 76.6145C253.136 66.6229 245.031 58.5231 235.034 58.5231C225.037 58.5231 216.932 66.6229 216.932 76.6145C216.932 86.6062 225.037 94.706 235.034 94.706Z" fill="#FBBEBE"/>
<path d="M258.925 65.4148C258.841 63.9766 258.627 62.549 258.286 61.1492C257.223 56.5782 255.279 52.078 251.933 48.7961C251.727 47.9937 251.481 47.2021 251.195 46.4244C251.19 46.4051 251.183 46.3862 251.175 46.3679C250.177 43.6281 248.734 41.0714 246.905 38.8005C245.844 37.4832 244.469 36.1829 242.778 36.132C242.303 36.1151 241.799 36.197 241.364 35.9794C241.043 35.7724 240.774 35.4961 240.575 35.1709C239.737 34.1131 238.626 33.3041 237.362 32.8313C236.098 32.3585 234.729 32.2399 233.402 32.4883L233.226 32.525C233.127 32.5448 233.028 32.5674 232.944 32.5929C232.859 32.6183 232.706 32.6607 232.587 32.6975C232.717 32.9123 232.845 33.13 232.969 33.3505C233.305 33.9479 233.616 34.5584 233.902 35.1822C234.14 35.7024 234.36 36.231 234.561 36.7681C231.665 37.0988 229.306 39.1539 227.151 41.11L222.077 45.712C222.068 45.7198 222.059 45.7283 222.051 45.7375L221.904 45.8788C221.868 45.9156 221.831 45.9523 221.797 45.9919C221.783 46.0037 221.771 46.0169 221.76 46.0315C221.718 46.0767 221.678 46.1247 221.639 46.1728C221.568 46.2618 221.505 46.3564 221.449 46.4555C221.421 46.4979 221.397 46.5423 221.375 46.5883C221.368 46.6019 221.361 46.6161 221.356 46.6307C221.337 46.6693 221.321 46.7089 221.308 46.7495C221.306 46.7551 221.306 46.7608 221.308 46.7664C221.3 46.7896 221.293 46.8132 221.288 46.8371C221.23 47.036 221.247 47.2492 221.336 47.4364L224.682 47.4731H225.075C225.092 47.9198 225.106 48.3692 225.123 48.8159C224.592 49.213 224.082 49.6376 223.596 50.0879C223.065 50.5788 222.567 51.1038 222.105 51.6596C219.087 55.3033 217.512 60.01 217.354 64.7477C217.354 64.8947 217.354 65.0303 217.354 65.183C217.354 65.6155 217.354 66.048 217.354 66.4777C217.354 66.7603 217.379 67.043 217.402 67.3257C217.403 67.6939 217.501 68.0554 217.684 68.3744C217.709 68.4101 217.735 68.4441 217.764 68.4762C217.933 68.6603 218.137 68.81 218.363 68.9172L218.606 69.0359C218.728 69.0953 218.844 69.1518 218.957 69.2168C220.024 69.8189 220.654 70.9807 221.624 71.727C221.681 71.7694 221.738 71.8118 221.794 71.8486L221.921 71.9334L222.001 71.9843L222.108 72.0464C222.179 72.0889 222.251 72.1276 222.326 72.1623L222.462 72.2302H222.484C222.597 72.2811 222.71 72.3291 222.826 72.3715L222.988 72.4281L223.036 72.445C223.081 72.4592 223.129 72.4761 223.177 72.4874C223.273 72.5157 223.368 72.5411 223.46 72.5637L223.743 72.6259C223.853 72.6457 223.966 72.6655 224.079 72.6796L224.246 72.7023L224.416 72.7192C224.686 72.7437 224.957 72.7579 225.231 72.7616C226.089 72.7563 226.945 72.6969 227.796 72.5835L235.014 71.7355C236.652 71.5461 238.323 71.3567 239.938 71.6903C241.307 71.9729 242.569 72.6231 243.898 73.0839C244.198 73.1885 244.498 73.2846 244.8 73.3666C244.911 73.3977 245.024 73.4316 245.137 73.4598L245.292 73.4994L245.654 73.587C245.785 73.6181 245.915 73.6492 246.045 73.6747C246.229 73.7143 246.41 73.7482 246.593 73.7821C246.718 73.8075 246.845 73.8273 246.972 73.8499H246.998L247.36 73.9065H247.448L247.716 73.9432C247.846 73.963 247.977 73.98 248.109 73.9941C248.398 74.0299 248.686 74.061 248.975 74.0874C249.442 74.1326 249.911 74.1665 250.389 74.1948L250.859 74.2231L251.328 74.2457L252.742 74.3079H252.805H253.003C253.591 74.3488 254.181 74.3185 254.762 74.2174C254.864 74.1976 254.963 74.175 255.062 74.1468C255.161 74.1185 255.243 74.0902 255.345 74.0563C256.405 73.6492 257.18 72.7136 257.718 71.7129C257.831 71.5009 257.935 71.2889 258.031 71.0712C258.128 70.8535 258.215 70.633 258.295 70.4126C258.394 70.1299 258.478 69.8613 258.552 69.5787C258.575 69.5023 258.594 69.426 258.611 69.3469C258.628 69.2677 258.668 69.1122 258.69 68.9935C258.761 68.6684 258.815 68.3405 258.855 68.0098C258.855 67.9052 258.88 67.7978 258.891 67.6932C258.917 67.4105 258.937 67.1476 258.948 66.8706C258.948 66.6614 258.948 66.4494 258.948 66.2374C258.945 66.0084 258.925 65.7059 258.925 65.4148ZM251.673 48.5388C251.444 48.324 251.209 48.1176 250.972 47.9226C251.236 48.0893 251.472 48.2974 251.67 48.5388H251.673Z" fill="#464353"/>
<path d="M200.293 75.6195C198.163 75.3566 196.05 74.4238 193.949 74.8817C192.633 75.1644 191.502 75.9814 190.45 76.8209C186.534 79.9574 183.205 83.7616 180.616 88.0574C180.177 88.6997 179.868 89.422 179.708 90.1832C179.572 91.0651 179.812 91.9612 180.098 92.8064C182.033 98.5194 186.171 103.291 188.054 109.021C190.034 115.048 189.347 121.634 187.887 127.808C186.078 135.429 183.138 142.737 179.165 149.489C178.625 150.493 177.949 151.418 177.156 152.237C176.127 153.226 174.744 153.933 174.133 155.228C173.85 155.793 173.768 156.438 173.567 157.042C173.002 158.739 171.633 160.192 171.5 161.981C171.401 163.346 172.048 164.638 172.442 165.938C173.105 168.172 173.034 170.56 172.241 172.751C170.807 176.68 167.056 180.253 168.145 184.293C170.575 183.595 173.267 182.687 174.413 180.434C174.817 179.637 175.018 178.687 175.7 178.105C177.06 176.949 179.377 177.995 180.822 176.932C181.914 176.123 181.953 174.467 181.467 173.195C180.98 171.923 180.143 170.803 179.77 169.495C179.119 167.134 180.16 164.638 179.968 162.199C179.877 161.068 179.529 159.985 179.504 158.86C179.456 156.675 180.667 154.62 182.276 153.136C183.885 151.652 185.874 150.668 187.831 149.698L195.23 146.024C197.914 144.695 200.856 143.075 201.735 140.215C202.069 139.143 202.072 138.001 202.089 136.882C202.34 119.777 206.628 103.017 210.891 86.449C211.553 83.8822 212.226 81.3042 213.21 78.8392C214.194 76.3743 216.12 74.3955 217.102 72.1058C211.408 71.4387 206.207 76.3601 200.293 75.6195Z" fill="#464353"/>
<path d="M241.081 182.927C241.734 186.885 242.133 190.927 242.444 194.95C237.353 199.167 231.872 202.837 226.303 206.24C225.986 206.435 225.666 206.627 225.347 206.805L225.321 206.941C225.308 206.909 225.293 206.878 225.276 206.848C224.844 205.915 224.088 205.17 223.149 204.75C221.062 200.369 218.976 195.987 216.893 191.606C215.761 189.24 214.63 186.851 214.064 184.298C214.064 184.245 214.039 184.188 214.03 184.134C213.6 182.156 213.501 180.101 213.216 178.096C213.071 176.949 212.812 175.818 212.444 174.721C212.104 173.746 211.637 172.799 211.224 171.846C210.715 170.67 210.288 169.48 210.268 168.211C210.268 167.807 210.294 167.363 210.096 167.024C209.884 166.732 209.623 166.479 209.324 166.278C208.95 165.947 208.667 165.526 208.501 165.056C208.335 164.586 208.291 164.081 208.373 163.589C206.676 163.677 205.72 165.5 205.039 167.046C204.419 168.559 203.605 169.984 202.618 171.287C201.898 172.217 200.983 172.978 199.936 173.517C199.843 173.562 199.75 173.607 199.654 173.647C197.292 174.687 194.534 174.32 191.974 173.851C189.737 173.441 187.424 172.932 185.625 171.541L185.432 171.388C184.9 170.946 184.425 170.439 184.018 169.879C182.511 167.821 181.843 165.11 181.473 162.529C181.439 162.286 181.405 162.043 181.374 161.8C181.116 159.976 181.045 158.131 181.161 156.293C181.195 155.841 181.243 155.389 181.303 154.939C181.342 154.657 181.385 154.351 181.433 154.057C181.432 154.049 181.432 154.04 181.433 154.032C181.507 153.566 181.586 153.096 181.665 152.619C181.948 151.016 182.231 149.371 183.079 147.991C183.637 147.133 184.342 146.379 185.161 145.764C185.466 145.523 185.78 145.294 186.097 145.074C186.612 144.718 187.141 144.378 187.678 144.059C189.03 143.25 190.45 142.56 191.921 141.995C192.271 141.86 192.628 141.733 192.984 141.611C194.369 141.119 195.86 141.001 197.306 141.269C198.587 141.454 199.881 141.53 201.175 141.495C204.493 141.43 207.825 140.797 211.137 140.387C215.736 139.822 220.677 139.754 224.688 142.083C224.88 142.193 225.067 142.309 225.253 142.431C227.233 143.725 228.828 145.54 230.115 147.567C230.398 147.994 230.644 148.432 230.887 148.876C231.448 149.895 231.955 150.942 232.406 152.014C232.673 152.54 232.817 153.12 232.828 153.71C232.821 153.822 232.806 153.933 232.783 154.043C232.706 154.445 232.553 154.835 232.5 155.242C232.321 156.782 233.631 158.069 234.12 159.536C234.437 160.491 234.403 161.514 234.581 162.521C234.839 163.934 235.532 165.206 236.154 166.478C237.137 168.526 237.978 170.639 238.671 172.802C239.163 174.309 239.585 175.838 239.955 177.381C240.076 177.877 240.19 178.373 240.298 178.871C240.606 180.239 240.858 181.579 241.081 182.927Z" fill="#F86D70"/>
<path d="M271.237 141.065V143.044L270.873 143.039L270.465 143.033L265.917 142.976L254.711 142.829L251.566 142.79L250.751 142.778L246.031 142.719L239.378 142.631L225.265 142.448L200.774 142.131L191.935 142.018L188.388 141.973L185.124 141.93L183.091 141.902L181.164 141.877L166.884 141.693L162.924 141.642L162.061 141.631L161.501 140.186L157.431 129.696L156.688 127.78L157.253 125.518L159.799 127.214L161.366 127.409L187.163 130.615L192.006 131.217L202.273 132.495L212.33 133.744L216.273 134.233L239.605 137.133L246.124 137.945L251.521 138.615L270.709 141L271.237 141.065Z" fill="#3F3D56"/>
<path d="M157.253 125.518L162.344 138.804L271.237 141.065V126.649L157.253 125.518Z" fill="#504F60"/>
<path d="M162.91 140.218L163.758 221.346L167.718 220.781L166.869 140.218H162.91Z" fill="#3F3D56"/>
<path d="M270.872 143.036H270.465C269.806 148.094 268.715 153.086 267.204 157.958L265.917 142.976L265.863 142.338L270.621 141.789L270.779 141.772L270.872 143.036Z" fill="#3F3D56"/>
<path d="M255.398 133.433L213.962 134.281L201.093 130.041L235.6 128.062L255.398 133.433Z" fill="white"/>
<path d="M203.421 116.947C202.982 117.116 202.592 117.393 202.29 117.753C202.053 118.143 201.909 118.582 201.868 119.036L201.172 123.183C201.066 123.562 201.085 123.966 201.226 124.334C201.407 124.681 201.933 124.862 202.196 124.574C202.162 125.385 202.233 126.25 202.705 126.912C203.178 127.573 204.168 127.921 204.835 127.46C204.94 127.631 205.08 127.776 205.247 127.887C205.413 127.998 205.602 128.071 205.8 128.102C205.998 128.132 206.2 128.12 206.392 128.065C206.584 128.009 206.763 127.913 206.914 127.782C206.512 127.918 206.484 128.531 206.77 128.842C207.09 129.125 207.497 129.287 207.924 129.303C212.894 130.003 217.961 129.366 222.603 127.457C223.041 127.276 221.887 121.874 221.771 121.32C221.489 120.017 221.347 118.426 220.247 117.549C217.617 115.452 212.944 115.039 209.739 115.288C207.55 115.453 205.409 116.016 203.421 116.947Z" fill="#FBBEBE"/>
<path opacity="0.1" d="M245.581 117.575C235.351 117.77 224.908 117.937 215.145 114.875C216.077 118.487 216.013 122.285 214.958 125.863L262.792 129.82C264.82 129.987 273.229 130.937 275.206 130.459C277.183 129.982 258.617 123.87 259.367 121.979C261.429 116.769 268.335 113.716 263.36 113.521C257.081 113.272 251.908 117.456 245.581 117.575Z" fill="black"/>
<path d="M245.864 118.14C235.633 118.335 225.191 118.502 215.427 115.441C216.36 119.053 216.296 122.85 215.241 126.428L263.075 130.386C265.102 130.553 273.511 131.517 275.488 131.025C277.465 130.533 277.002 128.11 277.751 126.219C279.813 121.009 268.618 114.282 263.643 114.087C257.364 113.838 252.191 118.022 245.864 118.14Z" fill="#464353"/>
<path d="M229.598 118.926C230.037 119.094 230.427 119.371 230.729 119.732C230.965 120.122 231.111 120.561 231.153 121.015L231.849 125.162C231.954 125.541 231.935 125.944 231.795 126.312C231.614 126.66 231.086 126.841 230.825 126.553C230.856 127.364 230.789 128.229 230.316 128.89C229.844 129.552 228.854 129.9 228.184 129.439C228.079 129.609 227.938 129.755 227.772 129.866C227.605 129.977 227.416 130.05 227.219 130.08C227.021 130.111 226.819 130.098 226.627 130.043C226.434 129.988 226.256 129.892 226.105 129.761C226.506 129.897 226.537 130.51 226.252 130.821C225.931 131.103 225.522 131.266 225.095 131.282C220.126 131.982 215.059 131.345 210.418 129.436C209.98 129.255 211.131 123.853 211.25 123.299C211.533 121.996 211.674 120.404 212.774 119.528C215.402 117.431 220.077 117.018 223.282 117.267C225.47 117.433 227.611 117.995 229.598 118.926Z" fill="#FBBEBE"/>
<path d="M161.999 109.923C161.06 111.133 160.118 112.368 159.513 113.778C158.356 116.47 158.526 119.517 158.718 122.44C158.772 123.288 158.84 124.153 159.284 124.857C159.668 125.388 160.174 125.82 160.76 126.115C163.21 127.505 166.078 127.921 168.878 128.232C173.166 128.707 177.469 128.996 181.787 129.1C192.484 129.36 203.345 128.486 213.764 130.909C212.475 128.95 212.478 126.358 213.199 124.124C213.92 121.891 215.309 119.946 216.669 118.033C211.901 116.523 206.787 118.881 201.792 118.646C196.664 118.406 191.918 115.443 186.784 115.446C185.681 115.446 184.558 115.585 183.486 115.319C182.415 115.053 181.377 114.245 181.278 113.145C182.646 113.453 183.945 112.283 184.51 111C185.076 109.716 185.178 108.266 185.727 106.974C187.093 103.76 190.784 102.271 193.08 99.6247C193.442 99.2063 193.785 98.7116 193.773 98.1576C193.719 97.6882 193.522 97.247 193.208 96.894C191.299 94.3499 188.422 92.9365 186.032 90.9577C185.201 90.268 183.523 87.6673 182.59 87.4271C180.859 86.9832 179.391 89.4821 178.265 90.7005C172.582 96.8723 167.16 103.28 161.999 109.923Z" fill="#464353"/>
<path opacity="0.07" d="M218.873 109.205C219.589 109.736 220.227 110.367 220.765 111.079C221.033 111.436 221.224 111.845 221.326 112.28C221.427 112.715 221.438 113.167 221.356 113.606C221.268 112.787 221.451 111.961 221.876 111.255C222.302 110.55 222.946 110.002 223.712 109.697L218.873 109.205Z" fill="black"/>
<g opacity="0.1">
<path opacity="0.1" d="M234.559 35.0749C234.226 34.1914 233.843 33.3278 233.41 32.4884C233.131 32.5421 232.855 32.6129 232.584 32.7004C233.07 33.506 233.507 34.3394 233.894 35.1965C234.112 35.1399 234.332 35.1004 234.559 35.0749Z" fill="black"/>
<path opacity="0.1" d="M250.969 46.2209C251.045 46.2831 251.119 46.3538 251.192 46.4188C251.187 46.4005 251.18 46.3825 251.172 46.3651C251.108 46.318 251.04 46.2699 250.969 46.2209Z" fill="black"/>
<path opacity="0.1" d="M224.676 47.4648C224.823 47.3489 224.959 47.2274 225.118 47.1143L225.072 45.7716L222.052 45.7405C221.562 46.1899 221.042 46.8344 221.33 47.4366L224.676 47.4648Z" fill="black"/>
<path opacity="0.1" d="M257.701 70.0678C257.163 71.0685 256.388 72.007 255.328 72.4112C254.51 72.7222 253.611 72.6939 252.737 72.6544C249.756 72.5328 246.724 72.3999 243.907 71.4134C242.588 70.9498 241.327 70.3025 239.947 70.0169C238.332 69.6834 236.66 69.8728 235.023 70.065L227.804 70.913C225.675 71.1618 223.302 71.3484 221.602 70.0424C220.629 69.2961 220.001 68.1343 218.935 67.535C218.485 67.2806 217.95 67.1167 217.659 66.687C217.475 66.3679 217.378 66.0065 217.376 65.6382C217.354 65.3414 217.339 65.0446 217.328 64.7478C217.297 65.6102 217.313 66.4736 217.376 67.3343C217.378 67.7025 217.475 68.064 217.659 68.3831C217.942 68.8099 218.485 68.9739 218.935 69.2311C220.001 69.8304 220.632 70.9922 221.602 71.7385C223.299 73.0444 225.675 72.8692 227.804 72.6091L235.023 71.7611C236.66 71.5689 238.332 71.3795 239.947 71.713C241.316 71.9957 242.577 72.6459 243.907 73.1095C246.735 74.096 249.756 74.2402 252.737 74.3504C253.611 74.3872 254.51 74.4183 255.328 74.1073C256.388 73.7031 257.163 72.7646 257.701 71.7639C258.741 69.8276 259.033 67.6311 258.922 65.4178C258.862 67.0387 258.445 68.6263 257.701 70.0678Z" fill="black"/>
</g>
<path opacity="0.1" d="M234.477 36.8925L238.436 40.5673C238.436 40.5673 235.042 39.1539 234.477 36.8925Z" fill="black"/>
</g>
<defs>
<clipPath id="clip0">
<rect width="278" height="227" fill="white"/>
</clipPath>
</defs>
</svg>
