<svg width="178" height="79" viewBox="0 0 178 79" fill="none" xmlns="http://www.w3.org/2000/svg">
<path d="M89.5098 4.88542C89.3688 5.00849 89.1808 5.07627 88.9826 5.07627C88.7823 5.07627 88.5964 5.00849 88.4554 4.88542C88.3144 4.76235 88.2367 4.59825 88.2367 4.42524C88.2367 4.25044 88.3144 4.08813 88.4554 3.96506C88.5964 3.84199 88.7823 3.77421 88.9826 3.77421C89.1808 3.77421 89.3688 3.84199 89.5098 3.96506C89.802 4.21834 89.802 4.63214 89.5098 4.88542ZM4.52821 4.88542C4.38517 5.00849 4.19922 5.07627 3.99896 5.07627C3.80075 5.07627 3.61276 5.00849 3.47176 4.88542C3.1816 4.63214 3.1816 4.21834 3.47176 3.96506C3.61276 3.84199 3.80075 3.77421 3.99896 3.77421C4.19922 3.77421 4.38517 3.84199 4.52821 3.96506C4.66716 4.08813 4.74685 4.25044 4.74685 4.42524C4.74685 4.59825 4.66716 4.76235 4.52821 4.88542ZM91.8127 1.95667C91.0566 1.2985 90.0513 0.936417 88.9826 0.936417C87.9139 0.936417 86.9085 1.2985 86.1524 1.95667C85.3964 2.61662 84.9816 3.49239 84.9795 4.42524C84.9795 4.5715 84.9938 4.71598 85.0143 4.86045C83.2447 6.25348 78.1014 10.2881 76.4258 11.4368C76.0702 11.6794 75.7719 11.9005 75.5144 12.1039L70.5796 7.80169C70.4406 7.67862 70.2506 7.61084 70.0524 7.61084C69.8542 7.61084 69.6641 7.67862 69.5252 7.80169L67.3796 9.67096C67.0894 9.92602 67.0894 10.338 67.3796 10.5913L69.7867 12.6907C69.421 13.0046 69.0041 13.3631 68.5402 13.7627C67.445 11.7186 66.1004 9.7976 64.5413 8.07816C59.8169 2.8699 53.6151 0 47.0803 0C44.1582 0 41.0951 0.76697 37.9748 2.27772C35.1508 3.64757 32.3677 5.61137 29.9258 7.95865C27.9314 9.87608 26.2334 11.963 24.8725 14.1337C24.2329 13.5825 23.6709 13.0991 23.1948 12.6907L25.602 10.5913C25.8942 10.338 25.8942 9.92602 25.602 9.67096L23.4584 7.80169C23.3174 7.67862 23.1274 7.61084 22.9312 7.61084C22.733 7.61084 22.543 7.67862 22.402 7.80169L17.4671 12.1039C17.2117 11.9005 16.9113 11.6794 16.5578 11.4368C14.8802 10.2881 9.73688 6.25348 7.96728 4.86045C7.98771 4.71598 8.00202 4.5715 8.00202 4.42524C8.00202 3.49239 7.58516 2.61662 6.82909 1.95667C6.07303 1.2985 5.06767 0.936417 3.99896 0.936417C2.93026 0.936417 1.9249 1.2985 1.17088 1.95667C-0.390292 3.31759 -0.390292 5.5311 1.17088 6.89203C1.9249 7.55198 2.93026 7.91406 3.99896 7.91406C4.16857 7.91406 4.33408 7.90158 4.4996 7.88374C6.09755 9.42838 10.7259 13.9125 12.0398 15.3751C12.3198 15.6836 12.5731 15.9441 12.8061 16.1688L7.87124 20.471C7.58107 20.726 7.58107 21.1381 7.87124 21.3913L10.0168 23.2624C10.1558 23.3837 10.3458 23.4532 10.544 23.4532C10.7422 23.4532 10.9323 23.3837 11.0712 23.2624L13.4784 21.163C15.0518 22.5543 17.604 24.8106 20.7795 27.6109C19.3573 35.0095 14.212 42.7738 11.8784 46.0075C10.4745 47.9499 10.3295 50.4381 11.4983 52.5C12.8531 54.8883 14.4776 57.6209 16.0776 59.9931C15.1867 60.8635 14.5328 61.5378 14.1711 61.973C9.54275 67.5201 7.06817 74.826 6.966 75.1328C6.8904 75.3611 6.96192 75.6072 7.154 75.7767C7.29704 75.8997 7.48707 75.9657 7.68324 75.9657C7.75068 75.9657 7.8222 75.9586 7.89167 75.9408C8.24518 75.8516 16.6211 73.6934 22.9843 69.6587C23.4625 69.3555 24.192 68.8186 25.132 68.0909C31.3296 71.4691 41.2055 76.194 44.9081 77.9491C44.9694 77.9866 45.0307 78.0205 45.0941 78.0544C45.5028 78.2649 45.9707 78.3772 46.4468 78.3772H46.4877C46.9638 78.3772 47.4318 78.2649 47.8404 78.0526C47.9038 78.0205 47.9651 77.9866 48.0264 77.9491C51.7332 76.1905 61.6335 71.4549 67.8312 68.0766C68.7793 68.8133 69.517 69.3519 69.9972 69.6587C76.3604 73.6934 84.7384 75.8516 85.0919 75.9408C85.1614 75.9586 85.2309 75.9657 85.3003 75.9657C85.4945 75.9657 85.6865 75.8997 85.8275 75.7767C85.8296 75.7731 85.8316 75.7713 85.8337 75.7713C85.9236 75.6893 85.9869 75.5894 86.0196 75.4841C86.0544 75.3718 86.0544 75.2505 86.0176 75.1328C85.9134 74.826 83.4388 67.5201 78.8125 61.973C78.4447 61.5324 77.7826 60.8493 76.8753 59.9646C78.4712 57.5995 80.0876 54.8794 81.4362 52.5C82.6071 50.4381 82.462 47.9499 81.0582 46.0075C78.7246 42.7791 73.5957 35.0327 72.1612 27.6466C75.3571 24.8302 77.9236 22.5596 79.5032 21.163L81.9103 23.2624C82.0554 23.389 82.2475 23.4532 82.4375 23.4532C82.6296 23.4532 82.8196 23.389 82.9668 23.2624L85.1103 21.3913C85.2513 21.27 85.3289 21.1042 85.3289 20.9312C85.3289 20.7581 85.2513 20.594 85.1103 20.471L80.1755 16.1688C80.4084 15.9441 80.6638 15.6836 80.9417 15.3751C82.2577 13.9125 86.884 9.42838 88.484 7.88374C88.6475 7.90158 88.813 7.91406 88.9826 7.91406C90.0513 7.91406 91.0566 7.55198 91.8127 6.89203C93.3739 5.5311 93.3739 3.31759 91.8127 1.95667Z" fill="#100F0D"/>
<path d="M39.0392 33.6914C39.0392 33.3275 38.9186 32.9512 38.7102 32.6355C38.2831 33.2865 38.2851 34.0945 38.7102 34.7473C38.9165 34.4316 39.0392 34.0552 39.0392 33.6914ZM38.7102 32.4161C40.5983 32.4161 40.5901 34.9649 38.7102 34.9649C36.8282 34.9667 36.8241 32.4161 38.7102 32.4161ZM49.4749 42.6364C49.387 41.4877 48.7617 40.3319 47.9811 39.4133C47.6665 39.0798 47.1413 38.2754 46.5262 38.27C46.1993 38.2664 45.8458 38.5661 45.5965 38.7355C44.2519 39.6541 43.7431 40.8278 43.4652 42.2476C43.41 42.5276 43.314 42.8451 43.2854 43.1465C43.2241 43.769 43.4161 44.2827 43.786 44.8196C44.0925 45.2673 44.5482 45.7685 45.1449 45.929C45.8948 46.1306 46.4138 45.6222 46.608 45.0354C47.2169 45.8702 48.1324 45.8184 48.7168 45.0104C49.2174 44.3148 49.5382 43.4587 49.4749 42.6364ZM62.2728 40.3123C62.3361 40.4354 62.6406 40.8296 62.6079 40.9633C62.5834 41.0632 62.236 41.2523 62.1543 41.3147C61.8375 41.5573 61.5167 41.7981 61.1939 42.0353C60.589 42.4794 59.9678 42.986 59.2547 43.2963C58.7826 43.5015 58.3147 43.703 57.857 43.9367C57.6056 44.0651 57.3543 44.2399 57.0825 44.338C56.351 44.5984 55.6603 44.75 55.0105 45.1727C54.4404 45.5455 53.9581 46.0182 53.5883 46.5462C53.3941 46.8208 53.2184 47.1116 53.1019 47.4184C53.0243 47.627 52.9875 47.6788 52.8996 47.8268C52.6606 48.2317 52.54 48.7525 52.4317 49.1949C52.3009 49.7353 52.2212 50.3097 52.3336 50.859C52.4501 51.4351 52.8404 51.9667 53.1367 52.4857C53.2756 52.7265 53.5515 53.0386 53.6148 53.3062C53.6577 53.4846 53.5944 53.5077 53.4534 53.6986C53.2634 53.9572 53.0897 54.1945 52.8404 54.4121C52.6912 54.5423 52.6585 54.5619 52.4685 54.5993C52.2887 54.635 52.1988 54.5833 52.1109 54.6957C52.0394 54.7848 52.0148 55.056 51.9903 55.1737C51.9249 55.4894 51.9924 55.8104 52.0435 56.1261C52.1579 56.8378 52.2682 57.7528 52.7076 58.3789C52.5094 58.4574 52.3132 58.5359 52.117 58.6126C52.0271 58.4128 52.0496 58.1773 51.9985 57.9669C51.9352 57.7118 51.8412 57.4621 51.7329 57.2213C51.506 56.7076 51.1913 56.2242 50.7908 55.7997C50.4618 55.4537 50.0491 55.1362 49.4974 55.2718C48.8741 55.4234 48.823 55.8532 48.6596 56.3081C48.6309 56.3866 48.5104 56.581 48.5206 56.6648C48.539 56.7932 48.5043 56.7076 48.6575 56.7968C48.8925 56.9324 49.1152 56.9805 49.3257 57.1714C49.9959 57.7796 49.6792 58.5769 49.3931 59.2957C49.1868 58.716 49.1949 58.1345 49.0621 57.5495C48.9702 57.1446 48.9559 57.5584 48.9395 57.7421C48.917 58.0204 48.917 58.2986 48.9456 58.5769C48.9702 58.8266 49.0151 59.0763 49.0805 59.3207C49.1111 59.4348 49.2481 59.6792 49.1806 59.7773C49.0948 59.9004 48.6023 60.0056 48.443 60.0698C48.4613 58.9764 48.3612 57.8331 47.7278 56.8646C47.4621 56.4561 47.0984 56.0655 46.6325 55.8229C46.0195 55.5054 45.5822 55.6018 44.9896 55.8479C44.9569 55.6267 44.9221 55.4073 44.8895 55.1862C44.5462 55.9317 44.2172 56.6202 44.0823 57.4211C44.0312 57.1464 43.9372 56.886 43.8718 56.6149C43.8371 56.4668 43.9352 56.185 43.7267 56.1797C44.0884 56.0512 43.7349 55.682 43.5285 55.5233C43.2445 55.3039 42.6907 55.2325 42.4108 55.4822C42.2943 55.5857 42.2575 55.7587 42.1472 55.8675C41.9081 56.0994 41.6384 56.2599 41.4463 56.5435C41.0785 57.084 40.9375 57.6975 40.9252 58.32C40.7025 57.4657 40.5554 56.6113 40.5043 55.7337C40.492 55.5054 40.4818 55.2771 40.4736 55.047C40.4716 54.9347 40.539 54.5993 40.4634 54.5119C40.4082 54.4459 40.2693 54.487 40.1835 54.437C40.0159 54.3389 40.1038 54.1178 40.0915 53.918C39.6113 54.3853 39.4274 55.0024 39.2987 55.6035C39.2292 55.4573 39.1515 55.0185 38.9043 55.1362C38.9309 54.8883 38.9186 54.8312 38.8246 54.5993C38.7837 54.503 38.7265 54.0749 38.6734 54.2836C38.6591 54.2497 38.6427 54.2159 38.6264 54.182C38.5017 54.2658 38.3791 54.3478 38.2545 54.4299C38.2136 54.2676 38.1298 53.5862 37.9725 53.5862C37.9786 53.1011 38.0072 52.6177 38.0317 52.1326C38.0583 51.5493 38.0072 50.9161 38.1135 50.34C38.1809 49.9761 38.5773 49.6551 38.8266 49.3572C38.9942 49.1592 39.2782 48.922 39.3804 48.6937C39.5316 48.3512 39.3375 47.743 39.2741 47.3845C39.3988 47.6663 39.5153 47.9517 39.6215 48.2371C39.9178 46.9778 39.1495 45.6347 38.1421 44.7661C38.2872 44.6805 38.4547 44.6537 38.3873 44.4985C38.3056 44.5877 38.2238 44.6769 38.1421 44.7661C37.8295 44.3772 37.5372 43.9777 37.2573 43.5728C36.9058 43.0645 36.6361 42.5008 36.1743 42.0585C35.3917 41.3076 34.3802 40.7243 33.4095 40.1785C33.1276 40.0216 32.6882 39.8735 32.4532 39.6648C32.3163 39.5435 32.349 39.5097 32.349 39.3045C32.349 38.616 32.349 37.9258 32.349 37.2373C34.276 37.2926 36.2254 37.3104 38.1482 37.1624C39.599 37.05 40.9436 36.6451 42.2882 36.1707C42.9686 35.9299 43.7145 35.5874 44.4562 35.5357C45.1367 35.4875 45.5658 35.7479 46.1462 35.9709C46.3934 36.0672 46.6938 36.0636 46.9656 36.1278C47.0453 36.1475 47.127 36.176 47.2087 36.1867C47.4478 36.2152 47.3272 36.2349 47.4887 36.1439C47.7278 36.0066 47.8504 35.7943 48.1548 35.714C48.6309 35.5892 48.9926 35.8692 49.3421 36.1064C49.8141 36.4293 50.2739 36.7664 50.752 37.0839C51.6961 37.7064 52.8731 38.4823 54.1216 38.4377C55.1433 38.4002 56.1814 38.0756 57.1438 37.8009C58.3515 37.4567 59.5428 37.066 60.7239 36.6558C61.3369 36.4436 61.8518 36.2795 62.4976 36.1635C62.377 36.4864 62.2564 36.811 62.1543 37.1392C62.0991 37.3175 62.0848 37.5387 61.9826 37.6975C61.8702 37.8723 61.6536 37.9882 61.5126 38.1452C61.2736 38.4074 60.9977 38.9674 61.0713 39.3366C61.1305 39.6309 61.5882 39.5739 61.8907 39.5792C62.0194 39.8236 62.1461 40.0679 62.2728 40.3123ZM43.2568 31.0748C43.551 31.5403 43.7554 32.0968 43.7288 32.6355C44.1518 32.4785 44.6156 32.3982 45.0713 32.3893C45.5209 32.3804 46.0889 32.3768 46.4118 32.0379C46.6979 31.7347 46.7244 31.1408 46.8164 30.7573C46.894 30.4326 46.9656 30.108 47.031 29.7816C47.0902 30.3096 47.1719 30.8375 47.2721 31.3601C47.3089 31.5474 47.3027 31.9273 47.4417 32.0611C47.552 32.1646 47.8034 32.2395 47.9444 32.3037C48.7842 32.6818 50.2207 33.3097 51.1668 32.8513C51.4958 32.6925 51.739 32.3554 51.9985 32.1271C52.585 31.6116 53.2388 31.1568 53.9459 30.7751C54.5895 30.4273 55.272 30.1312 55.9709 29.8726C56.3857 29.7174 56.9007 29.6282 57.2889 29.4338C57.6588 29.2483 57.7609 28.7061 57.812 28.3422C57.8856 27.8071 57.7834 27.2631 57.5791 26.7565C57.1888 25.7987 56.4613 24.9533 55.6583 24.2273C55.3579 23.9562 55.0309 23.5745 54.6039 23.4853C53.7027 23.3016 52.7341 23.2588 51.8187 23.1464C51.6225 23.1215 51.2608 23.0144 51.0667 23.0644C50.7745 23.1393 50.4148 23.4942 50.1737 23.653C49.714 23.958 49.2542 24.2612 48.7944 24.5644C48.6514 24.659 48.4389 24.7553 48.3224 24.8766C48.165 25.0371 48.2039 25.1513 48.1732 25.3992C48.0486 25.2155 48.0077 24.8855 47.7502 24.8819C47.4969 24.568 47.2087 23.999 46.847 23.7921C46.704 23.7083 46.4547 23.6815 46.2912 23.6369C45.9173 23.5317 45.5454 23.4282 45.1714 23.323C44.4706 23.1268 43.7717 22.9324 43.0708 22.7362C42.6417 22.6167 42.6907 22.622 42.3965 22.9253C41.8979 23.439 41.3993 23.9509 40.9007 24.4646C40.5145 24.8623 39.9771 25.2725 39.6767 25.7256C39.5194 25.9628 39.5868 26.2464 39.6215 26.5282C39.7196 27.2774 39.9873 28.0212 40.4777 28.6454C41.244 29.6157 42.5865 30.0135 43.2568 31.0748ZM83.884 74.5762L83.8758 74.5727C83.8983 74.5798 83.9207 74.5869 83.9432 74.5923C83.4303 73.9306 82.9174 73.267 82.4066 72.6053C80.9047 70.6629 79.4027 68.7205 77.9008 66.7799C77.5146 66.2787 76.779 66.2056 76.1394 65.9987C75.0523 65.6473 73.9632 65.2941 72.8761 64.9427C71.7175 65.9773 70.2074 66.7549 68.8158 67.5326C68.7075 67.5932 68.6012 67.6539 68.4889 67.7163C68.8199 67.9714 69.1203 68.1997 69.3921 68.4012L69.3941 68.403C69.8171 68.7152 70.1685 68.9613 70.4362 69.1325C70.7836 69.3519 71.1371 69.566 71.4947 69.7746C72.8842 70.5826 74.3371 71.3086 75.8247 71.9685C77.2102 72.5839 78.5629 73.119 79.7971 73.5667L79.7951 73.572C80.3918 73.7861 81.2132 74.0697 81.7363 74.2445L81.7425 74.2463C81.7404 74.2463 81.7384 74.2445 81.7363 74.2445L81.7384 74.2427L81.8528 74.2819L81.7425 74.2463C81.7813 74.2552 81.8181 74.2677 81.8528 74.2819C81.863 74.2855 81.8732 74.2891 81.8835 74.2926L81.9448 74.3123C83.9575 74.974 85.3 75.3165 85.3 75.3165L83.9432 74.5923C83.9207 74.5852 83.9023 74.5816 83.884 74.5762ZM86.0193 75.4841C85.9887 75.5894 85.9192 75.6928 85.8334 75.7713C86.0643 75.823 86.2972 75.8747 86.5281 75.9265C86.3585 75.7784 86.1889 75.6304 86.0193 75.4841ZM69.2531 38.5661C69.059 36.9965 68.4725 35.5553 67.7328 34.123C66.991 32.6854 66.1471 31.2924 65.4135 29.853C65.0723 29.1805 64.7678 28.5152 64.3387 27.8785C63.9034 27.2292 63.413 26.6067 62.9124 25.9931C61.8723 24.7143 60.7464 23.4853 59.5591 22.3081C58.3494 21.1095 57.0682 19.984 55.9545 18.7158C54.8388 17.4423 53.8069 16.1135 52.6626 14.8578C51.6062 13.7002 50.2493 12.2055 48.4675 11.9505C46.8613 11.7204 45.0938 12.4071 43.8228 13.2026C42.3536 14.1212 41.1643 15.3501 40.0936 16.6111C37.9214 19.1689 36.1375 21.9639 34.1656 24.6376C32.5309 26.8582 30.7735 28.9344 29.429 31.312C28.1212 33.629 26.8972 36.0583 25.9572 38.5072C24.7373 41.6875 25.0111 45.2263 25.62 48.485C26.1983 51.5832 27.1812 54.6207 28.4011 57.5709C28.7158 58.3325 29.0489 59.0906 29.4147 59.8344C28.0415 56.3616 26.9707 52.7657 26.3271 49.1342C25.6813 45.4849 25.3953 41.5733 26.9564 38.0667C28.3623 34.9025 29.8683 31.6812 31.9628 28.8077C32.7311 27.7554 33.6037 26.7619 34.3924 25.7202C35.5756 24.1631 36.6872 22.5685 37.8233 20.9846C38.8757 19.5203 39.9403 18.0577 41.152 16.686C42.3352 15.3465 43.7104 14.0141 45.4759 13.2525C46.2688 12.9118 47.2353 12.6532 48.1283 12.7014C49.011 12.7495 49.7671 13.2846 50.3883 13.7876C51.8882 15.0076 53.0468 16.5434 54.2585 17.9738C56.7433 20.9115 59.8064 23.4086 62.2524 26.3784C62.8388 27.0919 63.4171 27.8196 63.9034 28.5901C64.3755 29.3339 64.7065 30.1455 65.1295 30.9125C65.9857 32.4731 66.9175 34.0071 67.6531 35.6177C69.2286 39.0584 68.8117 43.0145 68.3806 46.6211C67.9351 50.3471 67.1872 54.0732 66.0797 57.694C65.8018 58.6072 65.4953 59.5133 65.1458 60.4087C66.3617 57.7885 67.1668 55.0185 67.8391 52.2592C68.5318 49.4053 69.0488 46.5105 69.2858 43.6013C69.4186 41.9265 69.4595 40.2374 69.2531 38.5661ZM22.6285 66.6033C22.5202 66.5498 22.4405 66.5516 22.3424 66.5106C21.5393 66.1717 20.9427 65.5099 20.2152 65.0801C19.9925 64.9481 20.1478 64.9766 19.9353 65.0266C19.784 65.0622 19.6226 65.1603 19.4816 65.221C18.6745 65.5652 17.8694 65.9095 17.0622 66.2537C16.7802 66.375 16.5411 66.4481 16.3368 66.6443C15.4602 67.4969 14.6694 68.4333 13.8418 69.3216C12.0436 71.2497 10.2474 73.1779 8.44922 75.106C11.3223 74.2944 14.134 73.292 16.8334 72.1112C18.3659 71.4406 19.8658 70.7075 21.2982 69.8835C21.5271 69.7532 24.5575 67.8019 24.4737 67.7306C24.0282 67.4844 23.6073 67.2258 23.1822 66.9547C23.0004 66.8405 22.8226 66.6996 22.6285 66.6033ZM15.2926 21.839C16.7414 23.1197 18.6622 24.8159 20.9202 26.8065C20.9427 26.6691 20.959 26.5318 20.9774 26.3945C21.2042 24.7089 21.2798 23.0394 21.7049 21.3753C21.7968 21.0114 21.9807 20.6957 21.8561 20.3461C21.758 20.0732 21.6088 19.8074 21.4883 19.5417C20.9038 18.2646 20.3194 16.9857 19.735 15.7086C18.6581 16.6468 17.5812 17.585 16.5044 18.525C15.8484 19.0958 15.1925 19.6683 14.5366 20.2391C14.4221 20.339 14.1033 20.528 14.0502 20.6654C13.9767 20.858 15.0862 21.6571 15.2926 21.839ZM71.5397 22.5596C71.6684 23.3712 71.7624 24.1863 71.8135 25.0032C71.8421 25.4812 71.8973 25.9557 71.9627 26.4319C71.9811 26.5675 71.9994 26.7048 72.0199 26.8439C75.0503 24.172 77.4778 22.0263 78.9757 20.7028L78.9736 20.701C77.296 19.2385 75.6204 17.7759 73.9427 16.315C73.25 17.3317 72.5573 18.3484 71.8625 19.3651C71.6521 19.6754 71.2086 20.1071 71.1147 20.4638C71.0513 20.7082 71.2965 21.2629 71.3476 21.5108C71.4191 21.8586 71.4825 22.21 71.5397 22.5596ZM45.9725 56.9413C45.3247 56.9413 45.2409 58.2754 45.2246 58.6625C45.2082 59.0228 45.3063 59.3938 45.4085 59.7398C45.4473 59.8718 45.5004 60.2517 45.619 60.3552C45.6946 60.4212 46.1829 60.4515 46.3055 60.398C46.5794 60.2767 46.4138 58.9782 46.4036 58.6661C46.3955 58.3967 46.4731 56.9413 45.9725 56.9413ZM54.892 46.0432C54.8531 46.0771 54.8123 46.1127 54.7735 46.1466C54.7878 46.1359 54.8654 46.0931 54.892 46.0432ZM53.6332 57.4514C53.6434 57.5549 53.7027 57.7457 53.6721 57.842C53.5985 58.0614 53.2736 58.1542 53.0652 58.238C53.1632 57.2338 52.6912 56.1047 52.3459 55.1648C53.0427 55.4359 53.3472 55.855 53.4861 56.4954C53.5556 56.8111 53.5985 57.1303 53.6332 57.4514Z" fill="#B2FFF7"/>
<path d="M49.1946 59.7713L49.2191 59.7606C49.215 59.7517 49.213 59.7428 49.211 59.7339L49.1946 59.7713ZM48.6388 69.4673C48.3936 69.4673 48.177 69.5564 48.0135 69.7063L47.1144 69.1391L47.9359 68.604C48.1116 68.7395 48.3343 68.8234 48.5714 68.8234C49.0965 68.8234 49.4603 68.4256 49.3887 67.9565C49.3213 67.5124 48.8799 67.1663 48.4018 67.1663C47.9236 67.1663 47.5537 67.5124 47.5762 67.9565C47.5824 68.0439 47.6007 68.1295 47.6334 68.2098L46.6363 68.8376L45.6391 68.2098C45.6718 68.1295 45.6902 68.0439 45.6942 67.9565C45.7188 67.5124 45.3489 67.1663 44.8707 67.1663C44.3926 67.1663 43.9512 67.5124 43.8817 67.9565C43.8102 68.4256 44.1739 68.8234 44.6991 68.8234C44.9361 68.8234 45.1609 68.7395 45.3366 68.604L46.1581 69.1391L45.259 69.708C45.0955 69.5564 44.8789 69.4673 44.6337 69.4673C44.0902 69.4673 43.5813 69.9114 43.4935 70.4893C43.3995 71.1029 43.8061 71.629 44.411 71.629C45.0138 71.629 45.5287 71.1029 45.5614 70.4893C45.5675 70.3769 45.5573 70.2699 45.5308 70.17L46.6363 69.4512L47.7397 70.17C47.7152 70.2699 47.705 70.3769 47.709 70.4893C47.7417 71.1029 48.2587 71.629 48.8615 71.629C49.4664 71.629 49.873 71.1029 49.779 70.4893C49.6891 69.9114 49.1803 69.4673 48.6388 69.4673ZM51.3708 57.8254C51.1706 57.3794 50.8988 56.9621 50.5984 56.5679C50.4493 56.3735 50.2797 56.179 50.1162 56.0025C50.0345 55.9204 49.9568 55.8544 49.8853 55.8134C49.8138 55.7759 49.7545 55.7617 49.6707 55.767C49.591 55.7724 49.4991 55.8063 49.4194 55.858C49.3376 55.9097 49.2743 55.9704 49.2089 56.0542C49.168 56.1059 49.1333 56.1648 49.1006 56.229C49.0495 56.3253 49.0025 56.4323 48.9576 56.5483C48.9392 56.6 48.9187 56.6517 48.8983 56.707C48.788 56.5483 48.7226 56.3628 48.7226 56.1648C48.6776 56.2611 48.6388 56.3556 48.6041 56.4466L48.4917 56.7409L48.8248 56.8533C48.9249 56.8854 49.2825 57.0352 49.6401 57.5275C49.7872 57.7273 49.7913 58.2962 49.3928 59.2951C49.4357 59.411 49.4786 59.5252 49.5256 59.6393L49.6728 59.5805L50.1407 59.395L51.6998 58.7778L51.7754 58.7475C51.7489 58.6886 51.7264 58.6316 51.6998 58.5727C51.5895 58.3194 51.4853 58.0715 51.3708 57.8254ZM54.7527 56.2896C54.7159 56.0292 54.6648 55.6529 54.6117 55.1945C54.4748 55.0268 54.3236 54.8841 54.1642 54.7717C54.0539 54.6933 53.9251 54.6291 53.7903 54.5809C53.7739 54.5755 53.7616 54.5666 53.7453 54.5613C53.7106 54.5506 53.6779 54.5381 53.6411 54.531C53.545 54.5042 53.449 54.5006 53.3448 54.481C53.2385 54.4614 53.1261 54.4364 52.9422 54.4079C52.9504 54.3651 52.9668 54.3258 52.9872 54.2902C52.9116 54.3026 52.8339 54.3169 52.7542 54.333C52.5703 54.3722 52.4109 54.4132 52.3108 54.44C52.2148 54.4667 52.1555 54.4846 52.1555 54.4846L51.1175 54.8021L52.0309 55.0625C52.0513 55.0179 52.0738 54.9733 52.1044 54.9341C52.1494 54.8752 52.2066 54.8253 52.2781 54.7914C52.27 54.9251 52.2965 55.0286 52.3333 55.1303C52.3374 55.141 52.3415 55.1534 52.3456 55.1641C52.3762 55.1766 52.4089 55.1909 52.4457 55.2052C52.6745 55.3051 53.0873 55.5191 53.2712 55.8402C53.2876 55.8705 53.3039 55.9026 53.3182 55.9365C53.3795 56.0738 53.4367 56.2611 53.4858 56.4948C53.5491 56.7801 53.6023 57.1404 53.6411 57.5346L53.6717 57.8539L54.013 57.5061L54.3502 57.1618L54.4196 57.0905C54.4176 57.0851 54.4176 57.0798 54.4176 57.0727C54.4094 57.012 54.3971 56.9496 54.3849 56.8889C54.3542 56.7231 54.3154 56.5572 54.2623 56.3949C54.25 56.361 54.2357 56.3289 54.2235 56.2968C54.2071 56.2504 54.1867 56.2058 54.1683 56.1594C54.1111 56.0185 54.0498 55.8794 53.9742 55.7438C53.9272 55.6564 53.8761 55.5726 53.8209 55.4906C53.7412 55.3693 53.6533 55.2498 53.5593 55.1338L53.5777 55.1196L53.6104 55.0928C53.8168 55.2587 53.9946 55.4495 54.154 55.6529C54.2235 55.7456 54.2868 55.8419 54.3461 55.94C54.4196 56.0613 54.485 56.1844 54.5422 56.311C54.5954 56.4341 54.6424 56.559 54.6812 56.6874C54.6914 56.7231 54.7016 56.7587 54.7098 56.7944L54.7527 56.7498L54.814 56.6874C54.814 56.6874 54.7915 56.5447 54.7527 56.2896ZM52.0738 58.628L52.1167 58.6119C52.1003 58.5781 52.086 58.5442 52.0717 58.5103C52.0717 58.5495 52.0758 58.5888 52.0738 58.628ZM47.3903 60.3795C47.566 60.376 47.6723 60.3742 47.6723 60.3742L47.9216 60.2743C47.9052 60.1263 47.893 59.9764 47.8807 59.8302C47.8255 59.1613 47.7193 58.5085 47.4965 57.8967C47.3862 57.5917 47.2452 57.2992 47.0654 57.0281C46.9673 56.8818 46.859 56.7409 46.7384 56.6125C46.7282 56.6018 46.718 56.5929 46.7078 56.5822C46.6158 56.4858 46.5198 56.3949 46.4115 56.32C46.154 56.1345 45.8434 56.0328 45.5492 56.0506C45.447 56.0578 45.3428 56.0774 45.2406 56.1095C45.1875 56.1255 45.1364 56.1452 45.0873 56.1701C44.9423 56.2433 44.8074 56.3485 44.7175 56.5126C44.7114 56.4948 44.7093 56.4769 44.7073 56.4591C44.6827 56.295 44.7502 56.1095 44.881 55.9721C44.928 55.9151 44.9893 55.8687 45.0526 55.8259C45.0322 55.833 45.0097 55.8402 44.9893 55.8473L44.8891 55.1856L44.3599 56.3378C44.2577 56.559 44.1658 56.9228 44.082 57.4205C44.1392 57.7487 44.1862 58.0733 44.2189 58.3979C44.2373 58.5905 44.2516 58.785 44.2618 58.9776C44.2618 58.9847 44.2618 58.9919 44.2639 58.999C44.272 59.1863 44.2802 59.3736 44.2884 59.5608C44.3006 59.8391 44.2925 60.1191 44.2312 60.4027C44.4089 60.4063 44.6214 60.4081 44.8544 60.4081C44.979 60.4081 45.1098 60.4081 45.2447 60.4081C45.3734 60.4063 45.5042 60.4045 45.637 60.4045L45.6002 60.3064C45.3019 59.5145 45.1711 58.8527 45.2406 58.4889C45.2549 58.4211 45.2672 58.3408 45.2815 58.2517C45.3366 57.9092 45.4286 57.3384 45.6309 57.1155C45.731 57.0031 45.8557 56.9407 45.9721 56.9407C46.152 56.9407 46.2194 57.0923 46.246 57.1832C46.4503 57.9252 46.4197 59.6661 46.3972 60.3813V60.3956C46.528 60.3938 46.6526 60.392 46.7711 60.3903C46.861 60.3885 46.9489 60.3885 47.0286 60.3849L47.0592 60.2529C47.1103 60.0068 47.1328 59.7571 47.1287 59.5056C47.1246 59.2558 47.094 59.0044 47.0368 58.7546C46.9857 58.5049 46.8958 58.2606 46.7895 58.0198L46.8488 57.9912C46.9652 58.1482 47.0613 58.3159 47.143 58.4907C47.1778 58.562 47.2084 58.6351 47.237 58.7083C47.3331 58.9615 47.3964 59.2255 47.423 59.4931C47.4516 59.7606 47.4454 60.0317 47.4066 60.2993L47.3903 60.3795ZM40.9249 58.3212V58.3194C40.8493 58.0269 40.741 57.5792 40.645 57.0548C40.5775 56.691 40.5264 56.1897 40.4958 55.5673C40.4876 55.4121 40.4815 55.2658 40.4774 55.132C40.4713 54.9519 40.4672 54.7985 40.4651 54.6861C40.4631 54.5613 40.4631 54.4881 40.4631 54.4864L40.0851 54.4168C40.081 54.4489 40.081 54.481 40.0789 54.5113C40.0728 54.5827 40.0646 54.6522 40.0544 54.7236C40.036 54.8716 40.0135 55.0179 39.989 55.1641C39.9849 55.1927 39.9808 55.2212 39.9768 55.2515C39.9502 55.421 39.9277 55.5922 39.9114 55.7617C39.8909 55.9632 39.8766 56.163 39.8623 56.3645C39.8562 56.493 39.8501 56.6196 39.846 56.748C39.8337 57.0209 39.8276 57.2938 39.8317 57.5685C39.8358 57.6969 39.8419 57.8254 39.8439 57.9556C39.9339 58.0126 40.0238 58.0697 40.1137 58.1286C40.2628 58.2231 40.4141 58.3194 40.5673 58.4175C40.6879 58.4942 40.8084 58.5709 40.931 58.6476C40.9229 58.5388 40.9229 58.43 40.9249 58.3212ZM39.3637 47.9814C39.3413 47.7852 39.3086 47.5872 39.2738 47.3839C39.1328 47.0699 38.9816 46.7649 38.8038 46.4724C38.7446 46.3743 38.6792 46.278 38.6118 46.1852C38.6015 46.1692 38.5893 46.1567 38.5791 46.1424C38.2787 45.7304 37.9109 45.3594 37.494 45.0419C37.3653 44.942 37.2304 44.8511 37.0915 44.7637C37.163 44.9153 37.2325 45.0847 37.2978 45.272C37.494 45.4896 37.6554 45.7179 37.8087 45.948C37.9865 46.2156 38.1459 46.4902 38.2909 46.7703C38.3563 46.8987 38.4176 47.0271 38.4749 47.1573C38.5443 47.3125 38.6118 47.4695 38.669 47.6282L38.6056 47.6514C38.5872 47.6211 38.5689 47.5908 38.5505 47.5604C38.4074 47.3214 38.2644 47.0824 38.107 46.8523C37.9333 46.5901 37.7494 46.3351 37.5574 46.0836C37.5471 46.0711 37.5369 46.0568 37.5247 46.0443C37.7065 46.8238 37.8189 47.8583 37.8884 48.9767C37.9538 50.0593 37.9763 51.2187 37.9783 52.305C37.9783 52.6385 37.9783 52.9649 37.9742 53.2806C37.9742 53.302 37.9742 53.3216 37.9742 53.3413L38.3216 53.4019C38.6792 52.6207 39.5006 50.5855 39.4107 48.5629C39.4026 48.3809 39.3862 48.1847 39.3637 47.9814ZM43.4649 42.2683H43.4506C43.4506 42.2683 43.1155 43.4259 43.3525 44.0128C43.8061 45.1311 44.6868 45.9569 45.447 45.9766H45.4797C45.7576 45.9766 46.011 45.882 46.2092 45.7001C46.3972 45.5289 46.5239 45.2881 46.6076 45.0348C46.8672 45.3897 47.2105 45.6823 47.6457 45.6823C48.3895 45.6823 48.8493 44.876 49.1313 44.2696C49.211 44.0984 49.2804 43.9289 49.3438 43.747C50.0304 41.7689 49.168 40.54 48.6225 39.8586C48.3895 39.5697 47.9808 39.4127 47.9808 39.4127L47.9726 39.4181C47.9747 39.4199 47.9747 39.4216 47.9747 39.4216C48.0912 39.5732 48.1995 39.732 48.3037 39.8943C48.6613 40.4597 48.931 41.059 49.0127 41.4871C49.1292 42.0989 49.1313 42.7767 48.8534 43.2618C48.8329 43.335 48.8125 43.4081 48.79 43.4794C48.7594 43.574 48.7267 43.6667 48.6878 43.7577C48.5019 44.1876 48.2403 44.5907 47.8991 44.9349L47.8643 44.9117L47.846 44.8992C48.132 44.5282 48.3548 44.1251 48.4917 43.7006C48.4978 43.6846 48.5019 43.6685 48.506 43.6525C48.3037 43.7987 48.0401 43.8933 47.7009 43.9164C46.9182 43.9664 46.6608 42.675 46.5811 41.5531C46.577 41.5032 46.5729 41.455 46.5709 41.4051C46.532 40.7487 46.5525 40.1779 46.5606 40.012C46.5525 40.1815 46.5177 40.7736 46.4462 41.4354C46.4421 41.4657 46.438 41.4942 46.436 41.5228C46.3543 42.2291 46.2276 42.9943 46.0396 43.3938C45.7576 43.9914 44.836 44.1626 44.2352 43.442C44.0616 43.2333 43.9165 42.9497 43.8184 42.5823C43.7959 42.4913 43.7734 42.3968 43.755 42.2951C43.7162 42.7642 43.7816 43.2422 43.943 43.6953C43.9471 43.7078 43.9512 43.7185 43.9553 43.7309C44.1229 44.209 44.4028 44.6567 44.7686 45.0508L44.7175 45.0901C44.3129 44.7369 44.0003 44.3035 43.7836 43.8362C43.7755 43.8201 43.7673 43.8059 43.7591 43.7898C43.5527 43.3136 43.4485 42.7981 43.4628 42.2826C43.4649 42.2773 43.4649 42.2719 43.4649 42.2683ZM42.4186 56.1041C42.3144 56.2557 42.2163 56.4002 42.1203 56.5483C41.9487 56.8194 41.8363 57.119 41.7443 57.4187C41.6524 57.7237 41.5849 58.0376 41.5277 58.364C41.4971 58.5567 41.4725 58.7511 41.4051 58.9473C42.5801 59.6911 43.6263 60.3421 43.7366 60.3742C43.7653 60.3831 43.8409 60.3902 43.9471 60.3938C43.8368 60.1352 43.7714 59.873 43.7244 59.6072C43.659 59.2237 43.5875 58.8403 43.5425 58.4532C43.4955 58.0697 43.473 57.6791 43.4506 57.2992C43.4404 57.1083 43.4138 56.921 43.4179 56.7302C43.4199 56.6749 43.422 56.6196 43.426 56.5607C43.4363 56.4234 43.4567 56.2825 43.5057 56.1273C43.5303 56.1469 43.5507 56.1683 43.5711 56.1897C43.6713 56.2843 43.7469 56.386 43.8082 56.493C43.8184 56.3984 43.8368 56.3075 43.8654 56.2112L43.7264 56.179L43.9206 56.072C43.8388 55.8883 43.5895 55.3265 42.9561 55.3265C42.8335 55.3265 42.7027 55.3479 42.5699 55.3925L42.4452 55.4317C42.4452 55.4317 42.245 55.7242 42.1837 55.8134C42.1714 55.8312 42.1591 55.8473 42.1469 55.8669C42.3124 55.7759 42.4963 55.7135 42.6965 55.6975C42.5964 55.8455 42.5045 55.9775 42.4186 56.1041ZM81.4254 66.9933C81.4213 66.9844 81.4152 66.9755 81.4111 66.9666C81.1495 66.5224 80.8778 66.0765 80.5917 65.6306C80.5713 65.6003 80.5508 65.5682 80.5304 65.5361C80.4405 65.397 80.3506 65.2596 80.2566 65.1205C80.2321 65.0795 80.2034 65.0384 80.1769 64.9992C80.0767 64.8494 79.9746 64.6996 79.8724 64.5515C79.7151 64.325 79.5557 64.0985 79.3902 63.8737C79.2982 63.7471 79.2042 63.6187 79.1082 63.492C79.0653 63.4349 79.0203 63.3779 78.9774 63.319C78.7281 62.9926 78.4706 62.6715 78.207 62.354C77.9455 62.0419 77.5307 61.6013 76.9789 61.0484C76.8216 60.8915 76.654 60.7256 76.4763 60.5508C76.1534 61.0163 75.8346 61.4658 75.5179 61.8921C75.5097 61.9028 75.5015 61.9135 75.4934 61.9242C74.6597 63.0497 73.8586 64.0111 73.1312 64.7049C73.0454 64.7887 72.9595 64.8654 72.8758 64.9421L83.9429 74.5917L85.2997 75.3159C85.2997 75.3159 85.218 75.0733 85.0586 74.6452C84.5702 73.3306 83.338 70.2503 81.4254 66.9933ZM90.0384 3.50423C89.7462 3.24917 89.3641 3.12253 88.982 3.12253C88.5998 3.12253 88.2177 3.24917 87.9255 3.50423C87.3431 4.01258 87.3431 4.83662 87.9255 5.34496C88.2177 5.59824 88.5998 5.72488 88.982 5.72488C89.3641 5.72488 89.7462 5.59824 90.0384 5.34496C90.6208 4.83662 90.6208 4.01258 90.0384 3.50423ZM91.2849 6.43121C90.6821 6.95738 89.9035 7.23028 89.1148 7.25704C89.0698 7.25882 89.0269 7.26239 88.982 7.26239C88.8675 7.26239 88.7531 7.25704 88.6407 7.24634C88.4956 7.23385 88.3505 7.20888 88.2075 7.17856C87.6476 7.05905 87.1163 6.81291 86.679 6.43121C86.2417 6.05129 85.9597 5.58754 85.8228 5.09882C85.7881 4.97396 85.7615 4.84911 85.7452 4.72247C85.7288 4.58513 85.7268 4.446 85.7329 4.30866C85.7656 3.62196 86.0783 2.94238 86.679 2.41621C87.3145 1.86327 88.1482 1.58502 88.982 1.58502C89.8157 1.58502 90.6473 1.86327 91.2849 2.41621C92.5559 3.52564 92.5559 5.32356 91.2849 6.43121ZM85.2098 5.58219C84.0369 6.50612 81.9301 8.156 80.0624 9.58649C80.3506 9.78804 80.6326 9.99673 80.9125 10.2054C81.219 10.4355 81.5214 10.6709 81.8218 10.9082C82.1202 11.1454 82.4165 11.3862 82.7128 11.627L83.15 11.9926L83.2175 12.0479C83.4872 11.7804 83.761 11.5093 84.0389 11.2364L84.0042 11.206L83.6241 10.8636C83.3707 10.6335 83.1214 10.4016 82.8742 10.1662C82.6269 9.93252 82.3838 9.69529 82.1426 9.4545C81.9036 9.21192 81.6645 8.97113 81.4377 8.71785C81.4213 8.69823 81.4254 8.66969 81.4479 8.65542C81.4663 8.64294 81.4928 8.64294 81.5092 8.65364C81.8014 8.84984 82.0813 9.05496 82.3613 9.26186C82.6392 9.46877 82.9151 9.67924 83.1868 9.89149C83.4586 10.1055 83.7263 10.3214 83.994 10.5372L84.3904 10.8671L84.4027 10.8779C84.6806 10.605 84.9585 10.3338 85.2302 10.0699L84.9053 9.77555C84.6806 9.56865 84.4578 9.36175 84.2392 9.15128C84.0205 8.94081 83.8039 8.72677 83.5914 8.51095C83.381 8.29156 83.1705 8.07573 82.9723 7.84564C82.9539 7.82602 82.958 7.79927 82.9825 7.78322C82.9988 7.77073 83.0254 7.77251 83.0417 7.78322C83.3074 7.95445 83.5587 8.13638 83.8101 8.31831C84.0614 8.50024 84.3087 8.68753 84.5518 8.87481C84.795 9.06566 85.0361 9.25651 85.2752 9.45093L85.594 9.71313C85.8821 9.43131 86.162 9.16019 86.4256 8.90513L86.1866 8.68753C85.9904 8.50559 85.7963 8.32188 85.6042 8.13459C85.4142 7.94909 85.2262 7.76003 85.0402 7.56739C84.8583 7.37298 84.6744 7.18034 84.5048 6.97522C84.4864 6.95382 84.4926 6.92706 84.515 6.91279C84.5334 6.90031 84.558 6.90031 84.5763 6.91101C84.8113 7.05905 85.0361 7.21601 85.2589 7.37476C85.4816 7.5335 85.7023 7.69582 85.9168 7.85991C86.1334 8.02401 86.3439 8.19167 86.5564 8.36112L86.7873 8.55197C87.1122 8.23626 87.4065 7.95266 87.6537 7.71365C87.0959 7.54242 86.583 7.26774 86.1518 6.89139C85.7207 6.51682 85.406 6.06913 85.2098 5.58219ZM75.0009 58.1767C76.5457 55.8277 78.0497 53.2556 79.0591 51.4738C79.8275 50.12 79.7355 48.5165 78.8119 47.2394C76.4027 43.9022 71.7498 36.8193 69.9067 29.6294C69.876 29.5045 69.8413 29.3779 69.8106 29.253C69.78 29.1228 69.7514 28.9944 69.7228 28.866C69.4387 27.6121 69.2405 26.36 69.1649 25.1274C69.1016 24.1018 68.9667 23.0745 68.7664 22.0524C68.37 20.0351 67.7161 18.0428 66.8354 16.1414C66.7864 16.0326 66.7353 15.9238 66.6842 15.815C66.6311 15.708 66.5779 15.601 66.5269 15.4939C62.8671 8.12033 55.7601 2.31275 47.0797 2.31275C39.8031 2.31275 31.3106 8.29869 26.8458 15.8293C26.7865 15.9309 26.7273 16.0326 26.668 16.1343C26.6108 16.2377 26.5515 16.3394 26.4943 16.4428C25.4828 18.2586 24.7063 20.1564 24.2404 22.0738C23.9952 23.0887 23.8317 24.1108 23.7704 25.1274C23.6948 26.3492 23.4987 27.5889 23.2187 28.8303C23.1901 28.9605 23.1615 29.0889 23.1308 29.2191C23.1002 29.344 23.0675 29.4706 23.0348 29.5955C21.1998 36.7979 16.5347 43.8968 14.1214 47.2394C13.1978 48.5165 13.1058 50.12 13.8742 51.4738C14.8877 53.2628 16.3998 55.8473 17.9508 58.2053C18.0141 58.3034 18.0795 58.4015 18.1449 58.4978C18.2103 58.5977 18.2757 58.6958 18.3411 58.7939C19.5283 60.5615 20.7176 62.1471 21.6984 63.0925C21.8517 63.2405 22.0008 63.3725 22.1439 63.4867C22.8632 64.0646 24.4611 65.0046 26.5107 66.1176C26.619 66.1764 26.7273 66.2353 26.8396 66.2941C26.9479 66.3548 27.0562 66.4119 27.1666 66.4707C34.2205 70.2521 45.7085 75.6958 46.4462 76.0454V76.065C46.4462 76.065 46.4544 76.0596 46.4667 76.0543C46.4789 76.0596 46.4871 76.065 46.4871 76.065V76.0454C47.2248 75.6958 58.7435 70.2378 65.7953 66.4565C65.9057 66.3976 66.014 66.3387 66.1223 66.2799C66.2347 66.2192 66.343 66.1604 66.4533 66.1015C68.4865 64.9956 70.0722 64.0628 70.7894 63.4867C70.9386 63.3672 71.0959 63.2263 71.2574 63.0711C72.2403 62.1186 73.4254 60.5329 74.6106 58.7653C74.676 58.6672 74.7414 58.5709 74.8068 58.471C74.8722 58.3747 74.9376 58.2766 75.0009 58.1767ZM75.9552 60.046C74.7659 61.7833 73.6053 63.2851 72.604 64.2447C72.5406 64.3072 72.4773 64.3642 72.4139 64.4213C72.3567 64.473 72.3016 64.523 72.2443 64.5711C72.2423 64.5729 72.2403 64.5747 72.2382 64.5765C72.1851 64.6229 72.1319 64.6674 72.0809 64.7103C71.899 64.8547 71.6742 65.017 71.4065 65.1972C71.1389 65.3773 70.8323 65.5735 70.489 65.7822C70.3276 65.8803 70.1621 65.9802 69.9884 66.0837C69.5756 66.328 69.124 66.5867 68.6398 66.8596C68.5948 66.8845 68.5478 66.9113 68.5028 66.9363C68.4702 66.9541 68.4395 66.9719 68.4068 66.9898C68.3557 67.0165 68.3067 67.0451 68.2576 67.0718C68.1841 67.1128 68.1105 67.1539 68.0369 67.1949C67.994 67.2181 67.9532 67.2413 67.9103 67.2644C67.802 67.3251 67.6916 67.3839 67.5813 67.4446C67.473 67.5035 67.3647 67.5623 67.2523 67.623C67.2502 67.6247 67.2482 67.6265 67.2441 67.6283C67.005 67.7585 66.7619 67.8887 66.5146 68.0207C66.2347 68.1705 65.9486 68.3239 65.6564 68.4773C65.4745 68.5736 65.2906 68.67 65.1026 68.7681C64.9902 68.8269 64.8799 68.8858 64.7654 68.9446C64.2178 69.2318 63.6538 69.5225 63.0817 69.8151C62.767 69.9774 62.4482 70.1415 62.1274 70.3038C61.8066 70.4679 61.4837 70.632 61.1588 70.7943C60.9974 70.8763 60.8339 70.9584 60.6725 71.0404C60.3455 71.2045 60.0206 71.3668 59.6937 71.5309C59.0418 71.8574 58.39 72.182 57.7443 72.5012C57.4214 72.66 57.1006 72.8187 56.7818 72.9757C56.463 73.1327 56.1463 73.2878 55.8337 73.4412C55.3637 73.6713 54.9019 73.8961 54.4503 74.1172C54.1499 74.2635 53.8536 74.408 53.5614 74.5489C53.3223 74.6648 53.0873 74.779 52.8564 74.8913C52.7563 74.9395 52.6582 74.9877 52.5581 75.034C52.3313 75.1446 52.1065 75.2534 51.8878 75.3587C51.3545 75.6155 50.8518 75.8581 50.3818 76.0828C50.1468 76.1952 49.9221 76.3022 49.7055 76.4057C49.2253 76.6358 48.7921 76.8427 48.4161 77.021C48.3241 77.0656 48.2362 77.1084 48.1504 77.1477C47.9583 77.2386 47.7806 77.3225 47.6253 77.3956C47.5721 77.4313 47.517 77.4634 47.4598 77.4937C47.1614 77.6471 46.8243 77.7256 46.4871 77.7256C46.485 77.7256 46.483 77.7256 46.4789 77.7256C46.4769 77.7256 46.4728 77.7256 46.4707 77.7256C46.4626 77.7256 46.4544 77.7256 46.4462 77.7256C46.1949 77.7256 45.9415 77.6828 45.7045 77.5954C45.6268 77.565 45.5492 77.5329 45.4756 77.4937C45.4163 77.4634 45.3612 77.4313 45.308 77.3956C44.6133 77.0674 43.5282 76.5519 42.1918 75.9098C40.3691 75.0358 38.0784 73.9264 35.6713 72.7385C35.1911 72.5012 34.7048 72.2605 34.2164 72.0179C33.5666 71.695 32.9127 71.3668 32.2608 71.0404C32.0994 70.9584 31.9359 70.8763 31.7745 70.7943C31.4496 70.6302 31.1267 70.4679 30.8059 70.3038C28.9893 69.3781 27.2402 68.4684 25.7076 67.639C25.5972 67.5784 25.4889 67.5195 25.3806 67.4589C25.2948 67.4125 25.209 67.3661 25.1252 67.3197C25.1007 67.3073 25.0762 67.293 25.0517 67.2805C24.8821 67.186 24.7145 67.095 24.551 67.0022C24.4243 66.9309 24.2976 66.8613 24.175 66.7918C22.7528 65.9909 21.6269 65.3024 20.9771 64.8066C20.9342 64.7727 20.8933 64.7406 20.8524 64.7103C20.6992 64.5854 20.5398 64.4445 20.3763 64.2893C20.3681 64.284 20.362 64.2768 20.3559 64.2697C20.3538 64.2697 20.3518 64.2679 20.3518 64.2679C19.5263 63.4813 18.5924 62.3237 17.6238 60.9699C17.5074 60.8058 17.3888 60.64 17.2724 60.4723C17.1804 60.3403 17.0885 60.2065 16.9965 60.0728C16.9291 59.9764 16.8637 59.8783 16.7963 59.7802C16.7309 59.6821 16.6655 59.5858 16.598 59.4877C16.4019 59.1916 16.2037 58.892 16.0055 58.587C15.8134 58.2891 15.6193 57.9895 15.4292 57.6862C15.1411 57.2296 14.855 56.7694 14.571 56.3057C14.195 55.6885 13.8231 55.0678 13.4614 54.4543C13.1242 53.8799 12.7953 53.3109 12.4785 52.758C12.3723 52.5743 12.2681 52.3924 12.1659 52.2104C11.5733 51.1652 11.3546 49.9969 11.5018 48.8625C11.5529 48.4844 11.6428 48.1116 11.7735 47.7459C11.9023 47.3821 12.0739 47.0271 12.2844 46.6882C12.3539 46.5741 12.4295 46.4635 12.5092 46.3529C12.7564 46.0104 13.0343 45.6163 13.3388 45.1775C13.4389 45.0312 13.5431 44.8814 13.6494 44.7244C13.9661 44.2571 14.3053 43.747 14.6568 43.1994C15.186 42.3771 15.7459 41.4675 16.312 40.4954C16.4203 40.3081 16.5306 40.1173 16.6389 39.9246C16.9679 39.3449 17.2969 38.7474 17.6198 38.1321C17.7812 37.8253 17.9385 37.5131 18.0959 37.1992C18.3023 36.789 18.5046 36.3752 18.7007 35.9524C18.8499 35.6367 18.995 35.3157 19.138 34.9928C19.2586 34.7181 19.3791 34.4417 19.4956 34.1634C20.313 32.2139 20.9975 30.1877 21.4246 28.1775C21.4532 28.0455 21.4757 27.9153 21.5022 27.7833C21.5288 27.6513 21.5554 27.5193 21.5799 27.3873C21.6208 27.1555 21.6575 26.9236 21.6902 26.6917C21.6923 26.6899 21.6923 26.6881 21.6923 26.6864C21.774 26.1334 21.8333 25.5823 21.868 25.0383C21.8885 24.6851 21.9211 24.3302 21.9641 23.9734C22.009 23.6167 22.0621 23.26 22.1275 22.9015C22.2236 22.3646 22.3462 21.8241 22.4892 21.2855C22.5403 21.0875 22.5975 20.8895 22.6568 20.6933C22.7038 20.5292 22.7549 20.3669 22.8059 20.2046C23.0777 19.3591 23.4067 18.5154 23.7868 17.6753C23.8113 17.6201 23.8358 17.5665 23.8603 17.5113C23.9421 17.3329 24.0279 17.1545 24.1137 16.9762C24.3773 16.4411 24.6593 15.9095 24.9617 15.3834C24.9944 15.3263 25.0292 15.2692 25.0619 15.2103C25.1211 15.1087 25.1824 15.007 25.2417 14.9071C25.301 14.8072 25.3643 14.7074 25.4256 14.6075C26.4371 12.9701 27.6448 11.3773 29.0322 9.87187C29.494 9.37067 29.9763 8.87838 30.4769 8.39501C30.998 7.8938 31.5354 7.41222 32.0851 6.95025C32.7942 6.35273 33.5237 5.78731 34.2695 5.26113C34.7661 4.90975 35.2687 4.57799 35.7755 4.26229C36.2823 3.94836 36.7931 3.65049 37.306 3.37403C37.4777 3.28128 37.6493 3.19209 37.821 3.1047C37.9926 3.01551 38.1663 2.9299 38.3379 2.84607C41.1579 1.47979 43.9185 0.744924 46.5525 0.659309C46.7282 0.653958 46.9039 0.650391 47.0797 0.650391C47.4741 0.650391 47.8664 0.661093 48.2567 0.682496C48.647 0.7039 49.0373 0.736006 49.4255 0.780597C49.6196 0.802002 49.8138 0.825189 50.0058 0.851943C50.5862 0.932208 51.1604 1.03744 51.7305 1.16408C53.6309 1.58859 55.472 2.27173 57.2252 3.19923C57.5747 3.38473 57.922 3.57915 58.2653 3.78427C58.6066 3.98939 58.9458 4.20343 59.2809 4.42817C60.2842 5.09882 61.2528 5.85687 62.1744 6.69519C62.7874 7.25525 63.382 7.84921 63.9542 8.48241C64.181 8.73033 64.4017 8.98361 64.6183 9.24224C64.8145 9.4759 65.0066 9.71313 65.1946 9.95214C65.3539 10.1555 65.5092 10.3588 65.6625 10.5657C65.8178 10.7744 65.9711 10.9849 66.1223 11.1989C66.343 11.5164 66.5575 11.8375 66.7659 12.1621C67.1828 12.8149 67.571 13.482 67.9327 14.1633C67.947 14.1919 67.9593 14.2186 67.9756 14.2472C68.0308 14.3524 68.0839 14.4576 68.1391 14.5629C68.1922 14.6699 68.2454 14.7769 68.2985 14.8839C68.3271 14.941 68.3537 14.9999 68.3823 15.0569C68.4252 15.1426 68.4661 15.2264 68.5069 15.312C68.5703 15.4476 68.6336 15.5831 68.697 15.7187C68.8543 16.0683 69.0076 16.4232 69.1506 16.7782C69.2957 17.1331 69.4326 17.4916 69.5613 17.8519C69.6247 18.0321 69.688 18.2122 69.7493 18.3942C69.8699 18.7562 69.9843 19.1201 70.0906 19.4858C70.1968 19.8514 70.2929 20.2171 70.3848 20.5863C70.3869 20.6023 70.391 20.6166 70.395 20.6309C70.4809 20.984 70.5585 21.339 70.63 21.6939C70.6668 21.8794 70.7016 22.0649 70.7343 22.2504C70.7751 22.4823 70.8119 22.7142 70.8466 22.946C70.9488 23.6345 71.0224 24.3248 71.0653 25.0151C71.0653 25.0222 71.0673 25.0293 71.0673 25.0383C71.0673 25.0508 71.0694 25.065 71.0714 25.0775C71.1205 25.8516 71.2185 26.6346 71.3616 27.423C71.3861 27.555 71.4127 27.687 71.4392 27.819C71.4658 27.951 71.4883 28.0812 71.5169 28.2132C71.7846 29.4671 72.1565 30.7281 72.5938 31.9713C72.6735 32.1996 72.7552 32.4244 72.839 32.6509C73.0024 33.0879 73.1741 33.5231 73.3539 33.9547C73.5256 34.3739 73.7033 34.7913 73.8893 35.2033C74.0487 35.56 74.2121 35.9114 74.3797 36.261C74.5657 36.6516 74.7537 37.0387 74.9478 37.4186C75.0683 37.6576 75.1909 37.8966 75.3156 38.1321C75.6834 38.8366 76.0614 39.5215 76.4374 40.1761C76.8134 40.8325 77.1894 41.4604 77.5572 42.0561C78.1682 43.0478 78.7547 43.945 79.2859 44.7244C79.7089 45.3487 80.0951 45.8963 80.4241 46.3529C80.5835 46.5723 80.7245 46.7988 80.8471 47.0325C80.9697 47.2644 81.0739 47.5034 81.1618 47.7459C81.3355 48.2329 81.4377 48.7359 81.4663 49.2424C81.5255 50.2538 81.2946 51.2811 80.7674 52.2104C79.4556 54.522 77.8923 57.1583 76.3536 59.4592C76.2883 59.5591 76.2208 59.6554 76.1554 59.7535C76.09 59.8516 76.0226 59.9479 75.9552 60.046ZM60.0125 31.1919C59.9389 31.0474 59.5568 30.8423 59.0807 30.6871C59.0337 30.6639 58.9867 30.6407 58.9397 30.6193C58.7884 30.5498 58.6311 30.4927 58.4697 30.4463C57.8566 30.2715 57.1987 30.2715 56.5877 30.3892C55.9747 30.5069 55.4025 30.7317 54.8733 31.0028C54.3461 31.281 53.8577 31.5985 53.3816 31.9267L53.4204 31.9749C53.9333 31.6913 54.438 31.3988 54.9734 31.1615C55.5047 30.9172 56.0646 30.7281 56.6449 30.6407C56.8574 30.6086 57.0761 30.589 57.2906 30.5854C56.6899 30.8762 56.224 31.5985 55.1348 31.8019C53.7739 32.0569 52.4518 32.8524 51.8511 33.5659C51.2482 34.2776 49.7504 34.3953 49.7504 34.3953C49.7279 34.7181 49.8015 35.0035 49.8975 35.2265L49.9159 35.3246C49.9732 35.5636 50.0692 35.7937 50.1979 36.0077C50.2265 36.0541 50.2572 36.1005 50.2878 36.1451C50.4002 36.3056 50.531 36.4536 50.6802 36.5874C50.8396 36.7265 51.0173 36.8496 51.2074 36.9495C51.2482 36.9691 51.2871 36.9905 51.33 37.0084L51.3668 36.9584C51.1665 36.8122 50.9846 36.6516 50.8375 36.4697C50.6863 36.2913 50.5617 36.0987 50.4636 35.8971C50.4636 35.8936 50.4615 35.8918 50.4615 35.89C50.4922 35.9078 50.5208 35.9292 50.5535 35.9453C50.7047 36.0256 50.8743 36.1023 51.0541 36.1754C51.0991 36.2271 51.1461 36.2806 51.1951 36.3306C51.377 36.5196 51.5813 36.6926 51.8 36.846C51.8511 36.8835 51.9021 36.9192 51.9553 36.9531C52.2373 37.1296 52.5356 37.283 52.8564 37.3918L52.8871 37.3383C52.5989 37.1832 52.3272 37.0119 52.086 36.8139C52.0431 36.7783 52.0043 36.739 51.9614 36.7034C51.8429 36.6017 51.7305 36.4947 51.6242 36.3823C51.802 36.4412 51.9798 36.4947 52.1494 36.541C52.4171 36.6142 52.6643 36.6712 52.8605 36.7051C53.5614 36.83 55.1736 36.6998 55.989 36.632C56.3895 36.5981 56.8922 36.5125 57.3458 36.3894C57.0577 36.6552 56.7307 36.8906 56.3731 37.0851C56.0094 37.2902 55.6089 37.4471 55.192 37.5649L55.2084 37.6219C55.6477 37.5559 56.0748 37.4204 56.4753 37.242C56.8738 37.0547 57.2457 36.8229 57.5767 36.55C57.7177 36.4322 57.8505 36.3056 57.9752 36.1736C58.1672 36.0916 58.3225 36.0006 58.4186 35.9043C58.7884 35.5297 59.4485 34.818 59.896 33.7336C60.3435 32.6491 60.1494 31.463 60.0125 31.1919ZM44.6725 34.4185C44.7522 34.2276 44.8299 33.9726 44.8299 33.6908C44.8299 33.318 44.695 32.9898 44.599 32.8025C44.5438 32.6955 44.5009 32.6348 44.5009 32.6348C44.5009 32.6348 44.4396 32.7222 44.3701 32.8685C44.2782 33.0629 44.1719 33.359 44.1719 33.6908C44.1719 34.0992 44.3333 34.4542 44.4314 34.629C44.4723 34.7039 44.5009 34.7467 44.5009 34.7467C44.5009 34.7467 44.5888 34.62 44.6725 34.4185ZM64.4834 32.7169C64.5059 32.9648 64.508 33.2163 64.4896 33.466C64.4814 33.5677 64.4732 33.6676 64.4589 33.7675C64.4487 33.8424 64.4364 33.9155 64.4221 33.9886C64.3854 34.1884 64.3384 34.3864 64.275 34.5826C64.2423 34.6771 64.2096 34.7717 64.1708 34.8644C64.0359 35.2247 63.8479 35.5672 63.6252 35.8971L63.6804 35.931C63.9583 35.6278 64.1831 35.2871 64.3649 34.9304C64.4058 34.8466 64.4426 34.7627 64.4794 34.6771C64.4446 35.107 64.3895 35.5939 64.2301 36.1486C64.1504 36.4305 64.0605 36.6231 63.9665 36.7586C63.9501 36.7711 63.9338 36.7818 63.9154 36.7925C63.5823 37.0066 63.1736 37.1457 62.7568 37.3312C62.6771 37.3669 62.5953 37.4043 62.5136 37.4436C62.3889 37.5042 62.2663 37.5666 62.1437 37.638C62.0661 37.6844 61.9884 37.7343 61.9149 37.7878C61.8944 37.8021 61.876 37.8181 61.8556 37.8342L61.5818 37.6416C61.6411 37.5399 61.7024 37.4418 61.7657 37.3508C61.7575 37.0583 61.7473 36.7729 61.733 36.4982C61.7289 36.434 61.7248 36.368 61.7228 36.302C60.2188 37.3954 57.6482 38.9097 54.9591 38.9097C54.2092 38.9097 53.4858 38.7938 52.8074 38.5619C52.6786 38.5173 52.5438 38.4709 52.4069 38.421C52.086 38.3069 51.7693 38.1873 51.4648 38.0643C51.2646 37.9858 51.0623 37.9002 50.86 37.8128C50.7067 37.7468 50.5535 37.679 50.4002 37.6094C49.8873 37.374 49.4214 37.135 49.0127 36.8996C48.4631 36.5821 47.8562 36.3413 47.2084 36.1861L46.7221 36.0702L46.2194 36.0202C45.9803 35.997 45.7392 35.9863 45.5022 35.9863C45.0833 35.9863 44.6623 36.0202 44.2516 36.0916C44.0268 36.1308 43.8102 36.1772 43.6079 36.2325L43.5773 36.2414C43.2483 36.3324 42.954 36.4519 42.7333 36.5464C42.6169 36.5963 42.5024 36.6463 42.39 36.698C42.0406 36.8532 41.681 37.0137 41.2886 37.135C41.0904 37.1974 40.9208 37.242 40.7594 37.2723C38.7119 37.6665 37.071 37.8502 35.5998 37.8502C34.9173 37.8502 34.2675 37.811 33.6177 37.7325C33.6156 37.7379 33.6136 37.7432 33.6115 37.7504C33.5645 37.8663 33.5196 37.9804 33.4787 38.0928C33.4337 38.2105 33.3929 38.3247 33.352 38.4371C33.2417 38.7474 33.1518 39.0292 33.0823 39.2772C33.824 39.8622 35.3096 41.0323 36.2577 41.7511C36.3579 41.8278 36.4519 41.8973 36.5377 41.9633C36.646 42.0418 36.742 42.1132 36.8217 42.172C37.3428 42.5484 37.9293 43.4313 38.4299 44.5978L38.1418 44.7655C38.1213 44.7476 38.1009 44.7298 38.0805 44.7119C38.0355 44.6745 37.9906 44.6352 37.9436 44.5978C37.7964 44.4836 37.6411 44.3784 37.4797 44.2803C37.1242 44.0663 36.7318 43.8933 36.3191 43.7737C36.033 43.5722 35.7224 43.4937 35.3995 43.4652C35.2299 43.4509 35.0603 43.4491 34.8846 43.4509C34.7109 43.4527 34.5331 43.458 34.3553 43.4563C34.1694 43.4545 33.9834 43.4456 33.7954 43.4188C32.7308 43.2672 31.9257 43.3278 31.1758 43.0639C30.9183 42.9729 30.667 42.8445 30.4136 42.6572C30.3135 42.5823 30.2235 42.5002 30.1357 42.4146C29.3633 41.6423 29.1303 40.4133 29.6555 39.2254C29.7331 39.0471 29.7822 38.8812 29.8128 38.7224C29.8189 38.7349 29.8271 38.7474 29.8353 38.7599C30.1112 39.1951 30.0805 39.7142 30.0519 40.235C30.0396 40.4972 30.0437 40.7665 30.0968 41.0323C30.1459 41.2713 30.2501 41.5067 30.4258 41.6976C30.4422 41.7172 30.4585 41.7404 30.4769 41.7582L30.5301 41.7208C30.5035 41.6887 30.4831 41.6566 30.4606 41.6244C30.3359 41.4389 30.2665 41.2267 30.2399 41.0144C30.2072 40.7612 30.2297 40.5043 30.2583 40.2475C30.2848 39.9888 30.3175 39.7249 30.3094 39.4537C30.3032 39.1844 30.2338 38.8972 30.1009 38.6493C30.0192 38.4888 29.9232 38.339 29.8332 38.1945C29.7801 37.638 29.5083 37.1261 29.302 36.4822C29.2999 36.3609 29.2999 36.2396 29.3122 36.1201C29.3183 35.997 29.3163 35.874 29.2468 35.7366C29.2979 35.8062 29.3449 35.8793 29.396 35.9506C29.6555 36.3145 29.9477 36.6659 30.3605 36.9548C30.3237 36.7105 30.2521 36.484 30.1622 36.2664C30.0846 36.0755 29.9926 35.8936 29.8925 35.7116C29.8598 35.6546 29.8292 35.5957 29.7965 35.5368C29.6779 35.3228 29.5594 35.1105 29.4368 34.8983C29.4634 34.8751 29.4879 34.8501 29.5124 34.8269C29.5962 34.7485 29.68 34.6682 29.7658 34.5844C30.9224 33.4678 32.2445 32.0159 33.5584 30.1984C33.5747 30.1752 33.5931 30.152 33.6115 30.127C33.6156 30.1199 33.6197 30.1128 33.6258 30.1074C33.6054 30.1395 33.587 30.1716 33.5666 30.2073C33.4521 30.4124 33.3541 30.6568 33.2989 30.9279C33.2744 30.96 33.2539 30.9939 33.2376 31.0296C33.1865 31.1401 33.1415 31.2507 33.1007 31.3649C33.021 31.5914 32.9617 31.8215 32.927 32.0552C32.8555 32.5243 32.8739 33.0005 32.9862 33.4607C33.1007 33.9209 33.305 34.3614 33.5829 34.7592C33.7627 35.0089 33.9732 35.2425 34.2102 35.453C34.3431 35.5743 34.482 35.6885 34.6332 35.7919L34.6782 35.7473C34.5311 35.6189 34.3921 35.4815 34.2634 35.3389C34.0733 35.1284 33.9017 34.9054 33.7627 34.6682C33.5216 34.2758 33.3561 33.8495 33.2744 33.4143C33.1947 32.9791 33.1947 32.5332 33.2723 32.0997C33.2825 32.0498 33.2948 32.0016 33.3071 31.9517C33.3275 32.0445 33.3541 32.139 33.3867 32.2335C33.7117 33.1735 34.0182 33.9797 34.6148 34.6093C35.0358 35.0553 35.5977 35.4138 36.4192 35.667C37.586 36.0256 38.9734 35.9792 40.0912 35.8954C40.1341 35.8936 40.177 35.89 40.2179 35.8864C40.1913 35.9025 40.1627 35.9168 40.1341 35.9328C39.9604 36.0309 39.7806 36.1219 39.5906 36.2004C39.3617 36.3002 39.1206 36.3752 38.8713 36.4412L38.8815 36.5C39.1471 36.4857 39.4107 36.4358 39.6682 36.3698C39.9012 36.3056 40.128 36.2182 40.3446 36.1147C40.363 36.1058 40.3854 36.0969 40.4079 36.088C40.5571 36.0131 40.6981 35.9275 40.835 35.8365C41.1006 35.8133 41.3356 35.7955 41.5298 35.7901C41.3499 35.8989 41.164 36.0042 40.976 36.1023C40.8391 36.1718 40.6981 36.2378 40.5571 36.3002C40.2669 36.4287 39.9665 36.5428 39.658 36.6374C39.2023 36.7854 38.7262 36.8889 38.2419 36.9602L38.248 37.0155L38.2501 37.0191C38.7446 36.9994 39.2391 36.9227 39.7213 36.8104C39.7622 36.7997 39.799 36.7872 39.8399 36.7765C40.1525 36.6926 40.459 36.5945 40.7573 36.4768C40.88 36.4305 40.9985 36.3787 41.117 36.327C41.4664 36.1683 41.8015 35.9828 42.1183 35.7759C42.9724 35.626 44.1739 34.497 44.1739 34.497C44.1739 34.497 43.0358 34.6236 41.8118 33.5053C40.5877 32.3869 39.6846 31.1669 38.4606 31.1152C38.0253 31.0973 37.4041 30.8922 36.7706 30.6318C36.0595 30.3393 35.3341 29.9772 34.8519 29.7346C34.8968 29.74 34.9418 29.7453 34.9867 29.7525C35.3198 29.8042 35.6468 29.8755 35.9717 29.9611C36.2945 30.0468 36.6153 30.1484 36.928 30.2644C36.9464 30.2715 36.9648 30.2804 36.9832 30.2876C37.2774 30.3964 37.5655 30.523 37.8496 30.6586L37.8884 30.6104V30.6086C37.635 30.432 37.3612 30.2769 37.0792 30.1342C37.0588 30.1235 37.0404 30.1128 37.0199 30.1021C36.8994 30.0432 36.7727 29.9897 36.648 29.938C36.458 29.8577 36.2659 29.781 36.0677 29.7168C35.7387 29.608 35.4016 29.5206 35.0562 29.4528C34.8846 29.4207 34.7109 29.3939 34.5372 29.369C34.4207 29.3654 34.3042 29.3262 34.1857 29.3422C34.4493 28.9891 34.7129 28.6395 34.9806 28.2988C35.6999 27.3731 36.4314 26.4937 37.1691 25.6625C37.2468 25.5751 37.3244 25.4877 37.4021 25.4021C37.4797 25.3165 37.5574 25.2309 37.635 25.1453C39.1737 23.4597 40.741 21.9829 42.3165 20.7379C42.5453 20.9662 42.5985 20.8966 42.5985 20.8966C43.2891 21.1642 43.8838 21.5441 44.3721 21.9347C45.0833 22.5019 46.1315 22.5875 46.9836 22.1933C47.3412 22.0292 47.7377 21.8848 48.1055 21.7349C48.036 21.9044 47.9706 22.0774 47.9216 22.2522C47.7683 22.7748 47.709 23.317 47.7193 23.8539C47.7234 23.9752 47.7315 24.0983 47.7479 24.2196C47.7622 24.3337 47.7806 24.4479 47.8092 24.5602C47.8378 24.6815 47.8766 24.7993 47.9216 24.9152L47.848 24.9134V24.8956L47.7499 24.8813C46.579 24.7226 45.2508 24.0983 44.1842 23.5971C43.7285 23.383 43.1768 23.1244 42.9234 23.0548C42.7292 23.3081 42.3206 23.8307 41.7872 24.5085C41.2825 25.1506 40.6736 25.9247 40.0585 26.7149C40.1688 26.8273 40.2567 26.9343 40.3241 27.0324C40.3814 27.118 40.4202 27.1893 40.4467 27.2607C40.4672 27.3196 40.5551 27.5354 40.8003 27.9046C41.1293 28.3969 41.8669 29.3476 43.1216 30.1877C43.5527 30.4766 43.8674 30.8226 44.0575 31.2151C44.2046 31.5218 44.2761 31.8607 44.2679 32.2139C44.3701 32.1836 44.4743 32.1497 44.5785 32.1122C44.6419 32.0926 44.7073 32.0748 44.7747 32.0569C44.9423 32.0159 45.1119 31.9874 45.2937 31.9678C45.4695 31.9481 45.6493 31.9374 45.8271 31.9356H45.9047C46.06 31.9356 46.2296 31.941 46.4237 31.9517L46.4993 31.9553C46.4667 32.0641 46.434 32.1729 46.4013 32.2763C46.3624 32.3887 46.3257 32.4957 46.2868 32.5974C46.2827 32.6117 46.2766 32.6277 46.2705 32.6438C46.2235 32.7668 46.1765 32.8792 46.1295 32.9773C46.0661 33.1075 46.0028 33.211 45.9415 33.2787C45.9047 33.318 45.872 33.3465 45.8373 33.359C45.5185 33.4874 45.167 33.8905 44.9382 34.1866C44.789 34.3793 44.693 34.5291 44.693 34.5291C44.693 34.5291 44.7972 34.5701 44.9484 34.6379C45.0465 34.6807 45.165 34.7378 45.2896 34.8038C45.5737 34.9518 45.8843 35.1462 46.0621 35.3567C46.1172 35.4191 46.1601 35.4833 46.1847 35.5493C46.1867 35.5547 46.1887 35.56 46.1908 35.5654C46.2092 35.6135 46.2337 35.6563 46.2603 35.6974C46.483 36.0256 46.9877 36.0898 47.3085 35.8722C47.4025 35.808 47.4822 35.7188 47.5313 35.6028C47.5333 35.5993 47.5333 35.5975 47.5354 35.5939C47.6477 35.3317 47.7622 35.1052 47.8664 34.9572C47.9134 34.8929 47.9583 34.8412 48.0013 34.8109C48.0421 34.7806 48.0891 34.752 48.1361 34.7271C48.2506 34.6682 48.3772 34.6218 48.5039 34.5897C48.9331 34.4774 49.3703 34.4934 49.3703 34.4934C49.3703 34.4934 48.9964 33.8638 48.5428 33.5053C48.2117 33.2413 47.7785 33.2591 47.7172 33.0879C47.6825 32.9862 47.6477 32.8828 47.6151 32.7775C47.611 32.7597 47.6048 32.7419 47.6007 32.724C47.5681 32.6188 47.5374 32.5136 47.5088 32.4065C47.5067 32.3976 47.5047 32.3887 47.5027 32.3816C47.4741 32.271 47.4454 32.1586 47.4189 32.048L47.5558 32.0587L47.5885 32.0641C47.7458 32.0837 47.9011 32.1051 48.0564 32.1283C48.32 32.1657 48.5775 32.205 48.8207 32.2442C49.1844 32.3013 49.5277 32.3548 49.7974 32.3869C49.8281 32.3887 49.8587 32.3905 49.8914 32.3905C50.4452 32.3905 51.2503 31.8821 52.272 31.2382C53.214 30.6443 54.3869 29.9059 55.8194 29.2851C56.2546 29.0961 56.7082 28.9766 57.168 28.932L52.8339 23.6577C52.1882 23.8842 50.5147 24.4532 48.9331 24.8474C48.7369 24.8956 48.5203 24.9205 48.2873 24.9205H48.2771L48.2853 24.9544L48.2158 24.9455C48.226 24.8278 48.2342 24.7101 48.2403 24.5941C48.2465 24.4853 48.2546 24.3783 48.2608 24.2695C48.2689 24.1357 48.2771 23.9984 48.2873 23.8646C48.3241 23.367 48.4345 22.8783 48.5775 22.4002C48.7001 22.0043 48.8534 21.6137 49.0393 21.2337C49.9057 20.5452 49.7525 20.0298 50.296 19.9067C50.341 19.8942 50.3961 19.8799 50.4513 19.8639C50.4125 19.9388 50.3716 20.0137 50.3328 20.0904C50.1754 20.4097 50.0324 20.7343 49.9119 21.0661C49.7913 21.3978 49.6952 21.7367 49.6135 22.0756C49.542 22.4181 49.495 22.7641 49.4889 23.1119L49.5563 23.1155C49.6237 22.7784 49.7014 22.4448 49.8138 22.1184C49.9221 21.7902 50.0426 21.4674 50.1898 21.1517C50.3328 20.836 50.484 20.5221 50.6516 20.2153C50.7353 20.0601 50.8191 19.9085 50.909 19.7587L50.956 19.682C51.2217 19.5732 51.5078 19.4412 51.7571 19.3092C53.5164 20.481 55.2819 21.9561 57.0168 23.6987C57.0985 23.7808 57.1803 23.8628 57.262 23.9467C57.3438 24.0287 57.4234 24.1126 57.5052 24.1964C58.7844 25.5199 60.0431 26.986 61.2732 28.5859C61.5552 28.9534 61.8372 29.3279 62.1172 29.7097C62.2173 29.8488 62.3195 29.9879 62.4196 30.127C62.6199 30.4071 62.8221 30.6764 63.0224 30.9386C63.1879 31.1544 63.3534 31.3649 63.519 31.57L63.3514 32.0141L63.2145 32.378C63.0776 32.7347 62.9631 33.1004 62.9591 33.5177C63.241 33.3037 63.4433 33.054 63.6089 32.79C63.617 32.9702 63.6211 33.1521 63.615 33.334C63.6109 33.5891 63.5925 33.8442 63.5619 34.0992C63.5557 34.1688 63.5435 34.2366 63.5333 34.3043C63.5087 34.4863 63.4781 34.6682 63.4433 34.8501C63.4413 34.8555 63.4413 34.8608 63.4413 34.8662L63.5067 34.8822C63.5271 34.8359 63.5455 34.7895 63.5639 34.7431C63.6436 34.5433 63.709 34.3364 63.7662 34.1295C63.7703 34.1171 63.7723 34.1046 63.7744 34.0939C63.8377 33.8477 63.8827 33.5998 63.9113 33.3501C63.9419 33.0879 63.9522 32.8221 63.946 32.5581C63.944 32.4422 63.9358 32.3263 63.9256 32.2103C63.9317 32.1978 63.9379 32.1854 63.944 32.1729C63.9706 32.1818 63.9971 32.1871 64.0278 32.1889C64.181 32.3691 64.3322 32.5457 64.4834 32.7169ZM63.0735 40.1761C63.0061 39.823 62.9039 39.4823 62.8078 39.163C62.6873 38.767 62.5769 38.4085 62.5463 38.1053C62.4032 38.1784 62.2704 38.2569 62.1499 38.3425C62.0988 38.3764 62.0477 38.4103 62.0027 38.4478C61.8536 38.5691 61.7391 38.7082 61.6247 38.8491C61.592 38.8919 61.5593 38.9347 61.5287 38.9793C61.5062 39.0114 61.4817 39.0435 61.4592 39.0774C61.4081 39.1594 61.357 39.2486 61.3018 39.3574C61.1874 39.2254 61.1445 39.0613 61.1486 38.8955C61.1445 38.9008 61.1425 38.9062 61.1384 38.9115L61.1282 38.9258C61.075 39.0132 61.0199 39.1095 60.9606 39.2237L60.7256 39.6821H61.545C61.6451 39.9157 61.8004 40.3456 61.8188 40.8182C60.9708 41.537 60.2311 42.0775 59.6201 42.4307L59.4628 42.5216C59.0602 42.7535 58.7047 42.9604 58.3777 43.153C58.2715 43.2155 58.1652 43.2779 58.063 43.3403C57.9547 43.4063 57.8485 43.4705 57.7443 43.533C57.4623 43.7095 57.2028 43.8754 56.9535 44.0431L57.1312 44.3195C57.1496 44.3124 57.166 44.3053 57.1823 44.2999C57.5011 44.1947 57.8015 44.143 58.0896 44.1198C58.1632 44.1144 58.2367 44.1091 58.3082 44.1055C58.4901 44.0984 58.6679 44.1019 58.8416 44.1073C58.9437 44.1109 59.048 44.1144 59.1481 44.118C59.2278 44.1216 59.3075 44.1251 59.3872 44.1269C60.0431 44.1447 60.6745 44.1037 61.3734 43.6221C63.1818 42.3771 63.1511 42.4021 63.1511 40.9288C63.1511 40.6738 63.1205 40.4223 63.0735 40.1761ZM53.0097 47.7263L52.6929 47.605C50.5392 50.0807 52.4314 53.1736 53.1282 54.1403C53.167 54.1118 53.2079 54.0886 53.2508 54.0708C53.3244 54.0387 53.4 54.0226 53.4776 54.0137C53.5614 54.0048 53.6452 54.0066 53.729 54.0083C53.7984 54.0119 53.8679 54.0208 53.9353 54.0351C54.1417 54.0726 54.3379 54.151 54.5116 54.2616C54.3461 52.5779 54.2173 50.3055 54.438 48.4059C54.5095 47.7941 54.6178 47.2215 54.7711 46.7203C54.5851 46.9629 54.4196 47.2198 54.2807 47.4873C54.1846 47.671 54.1029 47.8583 54.0293 48.0492C53.9823 48.1705 53.9374 48.2953 53.9006 48.4202C53.8005 48.7412 53.7412 49.0712 53.7065 49.4065H53.639C53.6125 49.0658 53.639 48.7234 53.6983 48.3827C53.731 48.2115 53.7739 48.0402 53.825 47.8708C53.8781 47.7085 53.9374 47.5462 54.0089 47.3874C54.1233 47.1252 54.2664 46.8719 54.4298 46.6294C54.4687 46.5723 54.5054 46.517 54.5443 46.4635L54.7139 46.2477L54.7731 46.1799L54.7895 46.1603L54.7731 46.146C54.626 46.2726 54.483 46.4046 54.3522 46.5438C54.3481 46.5473 54.344 46.5527 54.3399 46.5562C54.2378 46.665 54.1397 46.7756 54.0498 46.8916C53.8618 47.1252 53.7065 47.3767 53.5512 47.63C53.5348 47.655 53.5185 47.6799 53.5042 47.7049C53.3264 47.985 53.167 48.2739 52.9668 48.5753C52.9586 48.5343 52.9565 48.4933 52.9504 48.4523C52.9279 48.2329 52.9443 48.0153 52.9892 47.8012C52.9954 47.7763 53.0035 47.7513 53.0097 47.7263ZM17.5523 62.0758C17.5462 62.0651 17.538 62.0562 17.5319 62.0455C17.1845 61.5817 16.833 61.0912 16.4775 60.5775C15.6867 61.3534 15.1043 61.9581 14.7733 62.354C13.5554 63.8149 12.4847 65.4094 11.5692 66.9666C11.5651 66.9737 11.561 66.9808 11.559 66.988C10.4944 68.7984 9.64226 70.5535 9.0088 71.984C8.99041 72.025 8.97406 72.0643 8.95567 72.1035C8.90254 72.2266 8.84942 72.3496 8.79833 72.4674C8.71046 72.6725 8.62668 72.8705 8.54903 73.0577C8.51225 73.1434 8.47956 73.2254 8.44686 73.3057C8.406 73.4038 8.36717 73.5001 8.33039 73.5928C8.26091 73.7605 8.19961 73.9193 8.14239 74.0673C8.10357 74.1636 8.06883 74.2564 8.03409 74.3455C8.01775 74.3883 8.0014 74.4312 7.98709 74.4722C7.96257 74.5346 7.94214 74.5899 7.92171 74.6452C7.91557 74.6648 7.9074 74.6862 7.90127 74.7023C7.88697 74.7379 7.87471 74.7736 7.86245 74.8057C7.83793 74.8717 7.81749 74.9306 7.79706 74.9841C7.71941 75.1981 7.68263 75.3159 7.68263 75.3159C7.68263 75.3159 7.81545 75.282 8.06066 75.2142C8.12196 75.1981 8.18939 75.1785 8.265 75.1571C8.32221 75.1411 8.38556 75.1232 8.44891 75.1054L20.0821 64.9635C19.9962 64.8886 19.9104 64.8084 19.8246 64.7263C19.1258 64.061 18.3554 63.146 17.5523 62.0758ZM79.0898 12.9398C79.4453 13.2251 79.7988 13.5141 80.1483 13.803L80.6714 14.24L80.8757 14.413C81.1087 14.1687 81.3784 13.8922 81.6747 13.5908L81.5255 13.4552L81.0596 13.0414C80.7531 12.7614 80.4466 12.4814 80.1442 12.1995C79.8397 11.9159 79.5414 11.6306 79.2451 11.3416C79.0285 11.1276 78.8139 10.9135 78.6014 10.6959C78.1375 11.0437 77.7187 11.3541 77.3692 11.6056C77.5858 11.7661 77.8004 11.9302 78.0149 12.0925C78.3766 12.3726 78.7342 12.6544 79.0898 12.9398ZM18.6006 16.6961L18.0734 17.1563L21.9375 20.5256C21.9743 20.4043 22.009 20.283 22.0478 20.1618C22.5669 18.5172 23.2882 16.8745 24.1955 15.2692C24.2036 15.2567 24.2098 15.246 24.2159 15.2335C24.3119 15.0659 24.408 14.9 24.5061 14.7323C23.795 14.1205 23.1778 13.589 22.667 13.1502L18.6006 16.6961ZM14.2032 13.2144C13.8721 13.523 13.537 13.8262 13.2019 14.1294L12.6951 14.5807L12.4601 14.7894C12.5214 14.8554 12.5766 14.916 12.6277 14.9713C12.8852 15.2585 13.1202 15.5011 13.3327 15.708L16.9393 12.5634C16.7023 12.3779 16.4244 12.1728 16.0954 11.948C15.9973 11.8803 15.8849 11.8 15.7643 11.7144C15.5723 11.907 15.3802 12.0961 15.186 12.2852C14.8611 12.5991 14.5342 12.9076 14.2032 13.2144ZM12.8382 12.1995C12.5337 12.4814 12.2292 12.7614 11.9207 13.0414L11.4568 13.4552L11.3056 13.5908C11.6019 13.8922 11.8716 14.1687 12.1046 14.413L12.3089 14.24L12.832 13.803C13.1835 13.5141 13.535 13.2251 13.8905 12.9398C14.2461 12.6544 14.6037 12.3726 14.9674 12.0925C15.1799 11.9302 15.3945 11.7661 15.6111 11.6056C15.2617 11.3541 14.8428 11.0437 14.3789 10.6959C14.1684 10.9135 13.9518 11.1276 13.7373 11.3416C13.441 11.6306 13.1406 11.9159 12.8382 12.1995ZM80.3547 14.9713C80.4037 14.916 80.4609 14.8554 80.5202 14.7894L80.2852 14.5807L79.7784 14.1294C79.4433 13.8262 79.1082 13.523 78.7771 13.2144C78.4461 12.9076 78.1192 12.5991 77.7963 12.2852C77.6022 12.0961 77.408 11.907 77.216 11.7144C77.0974 11.8 76.983 11.8803 76.8849 11.948C76.5559 12.1728 76.278 12.3779 76.043 12.5634L79.6476 15.708C79.8601 15.5011 80.0972 15.2585 80.3547 14.9713ZM13.584 16.409L13.3225 16.6373L8.39782 20.9305L10.5434 22.8016L12.9546 20.6986L17.8077 16.466L22.1357 12.6936L22.6629 12.2334L25.0741 10.1305L22.9306 8.26123L17.4788 13.0129L13.8497 16.1771L13.584 16.409ZM68.8686 14.3934C69.3488 15.3459 69.7759 16.3233 70.1458 17.3168C70.1478 17.3222 70.1498 17.3258 70.1519 17.3311C70.489 18.2372 70.7792 19.1576 71.0203 20.0868C71.053 20.2117 71.0837 20.3383 71.1143 20.465L74.909 17.1563L74.3797 16.6961L70.3133 13.1502C69.8985 13.507 69.4162 13.9225 68.8686 14.3934ZM11.4711 11.1829C11.1973 11.4415 10.9194 11.6983 10.6394 11.9534L10.2165 12.3315L10.1286 12.41C10.4106 12.69 10.6844 12.9629 10.9419 13.2234L11.0706 13.1163L11.5508 12.715C11.8737 12.4492 12.1986 12.1853 12.5255 11.9231C12.8525 11.6627 13.1835 11.404 13.5186 11.149C13.7618 10.9653 14.005 10.7815 14.2542 10.6014C13.864 10.3071 13.4451 9.98959 13.0119 9.65783C12.7748 9.90933 12.5317 10.1537 12.2885 10.398C12.0188 10.662 11.747 10.9242 11.4711 11.1829ZM34.0202 29.567C33.9671 29.6365 33.916 29.7079 33.8649 29.7792C33.9283 29.7043 33.9916 29.6419 34.0488 29.5937C34.0386 29.5866 34.0284 29.5759 34.0202 29.567ZM29.1017 35.6153C29.1058 35.6492 29.1119 35.6813 29.1181 35.7134L29.2447 35.7313C29.1916 35.6563 29.1405 35.5832 29.0874 35.5083C29.0915 35.544 29.0956 35.5779 29.1017 35.6153ZM38.5586 54.8912C38.5852 54.6861 38.624 54.4828 38.6731 54.283L38.3155 53.5285L37.9722 53.5856C37.9722 53.607 37.9722 53.6302 37.9701 53.6516C37.9681 53.9406 37.962 54.2152 37.9579 54.4757C37.9374 55.4799 37.9109 56.2486 37.9047 56.5661C37.9027 56.6428 37.9027 56.6945 37.9068 56.7141C37.9068 56.7141 37.9824 56.7623 38.1132 56.8461C38.1949 56.8996 38.295 56.9639 38.4176 57.0423C38.4932 57.0923 38.5811 57.1476 38.6731 57.2064C38.6465 57.0976 38.6261 56.9888 38.6056 56.88C38.5811 56.7462 38.5607 56.6125 38.5443 56.4769C38.5423 56.4591 38.5402 56.4395 38.5382 56.4198C38.5259 56.2968 38.5178 56.1719 38.5116 56.0471C38.5035 55.9079 38.5035 55.7688 38.5035 55.6297C38.5035 55.5227 38.5055 55.4139 38.5137 55.3068C38.5239 55.1677 38.5382 55.0286 38.5586 54.8912ZM38.904 55.1356C38.9101 55.0678 38.9183 54.9983 38.9285 54.9287L38.9408 54.8449L38.7425 54.4293C38.7221 54.6968 38.7098 54.9644 38.718 55.2301C38.7201 55.2569 38.718 55.2837 38.7201 55.3104C38.7242 55.487 38.7344 55.6636 38.7528 55.8402C38.7671 55.9775 38.7855 56.1148 38.8079 56.2522C38.81 56.2629 38.81 56.2718 38.812 56.2825C38.8181 56.3182 38.8243 56.3538 38.8304 56.3895C38.8447 56.4733 38.8651 56.5572 38.8835 56.6428C38.9408 56.9121 39.0061 57.1797 39.092 57.4419C39.0961 57.4561 39.1022 57.4704 39.1083 57.4847C39.1471 57.5097 39.1839 57.5346 39.2227 57.5596C39.1717 57.1708 39.1553 56.7784 39.1839 56.386C39.1839 56.3663 39.1839 56.3467 39.186 56.3271C39.188 56.3235 39.188 56.3217 39.188 56.3182C39.19 56.2914 39.1941 56.2664 39.1962 56.2397C39.2084 56.1184 39.2248 55.9989 39.2452 55.8794C39.2616 55.7866 39.2779 55.6939 39.2984 55.6029L39.0634 55.1071L38.904 55.1356ZM70.581 12.4635L70.8446 12.6936L75.1726 16.466L82.4369 22.8016L84.5825 20.9305L79.1306 16.1771L75.5015 13.0129L74.9764 12.5545L70.0518 8.26123L67.9062 10.1305L70.581 12.4635ZM5.05479 3.50423C4.76258 3.24917 4.38047 3.12253 3.99835 3.12253C3.61827 3.12253 3.23411 3.24917 2.94395 3.50423C2.35953 4.01258 2.35953 4.83662 2.94395 5.34496C3.23411 5.59824 3.61827 5.72488 3.99835 5.72488C4.38047 5.72488 4.76258 5.59824 5.05479 5.34496C5.63717 4.83662 5.63717 4.01258 5.05479 3.50423ZM6.30128 6.43121C5.86399 6.81291 5.3327 7.05905 4.7728 7.17856C4.62976 7.20888 4.48672 7.23385 4.3396 7.24634C4.22721 7.25704 4.11278 7.26239 3.99835 7.26239C3.95544 7.26239 3.91048 7.25882 3.86757 7.25704C3.07881 7.23028 2.29823 6.95738 1.69746 6.43121C0.424414 5.32356 0.424414 3.52564 1.69746 2.41621C2.33296 1.86327 3.16463 1.58502 3.99835 1.58502C4.83206 1.58502 5.66577 1.86327 6.30128 2.41621C6.90204 2.94238 7.21673 3.62196 7.24738 4.30866C7.25555 4.446 7.25147 4.58513 7.23512 4.72247C7.22081 4.84911 7.19221 4.97396 7.15747 5.09882C7.02056 5.58754 6.73857 6.05129 6.30128 6.43121ZM80.4548 11.9231C80.7838 12.1853 81.1066 12.4492 81.4295 12.715L81.9117 13.1163L82.0384 13.2234C82.2979 12.9629 82.5697 12.69 82.8517 12.41L82.7659 12.3315L82.3409 11.9534C82.0609 11.6983 81.783 11.4415 81.5092 11.1829C81.2333 10.9242 80.9616 10.662 80.6939 10.398C80.4487 10.1537 80.2055 9.90933 79.9705 9.65783C79.5352 9.98959 79.1184 10.3071 78.7261 10.6014C78.9753 10.7815 79.2206 10.9653 79.4637 11.149C79.7968 11.404 80.1278 11.6627 80.4548 11.9231ZM7.70715 9.45093L7.38633 9.71313C7.09821 9.43131 6.8203 9.16019 6.5567 8.90513L6.79578 8.68753C6.98991 8.50559 7.18608 8.32188 7.37611 8.13459C7.56819 7.94909 7.75619 7.76003 7.9401 7.56739C8.124 7.37298 8.30587 7.18034 8.47751 6.97522C8.48977 6.95917 8.48977 6.93776 8.47751 6.92171C8.46117 6.90209 8.42847 6.89674 8.40599 6.91101C8.16896 7.05905 7.94623 7.21601 7.72145 7.37476C7.49872 7.5335 7.28007 7.69582 7.06347 7.85991C6.84891 8.02401 6.6364 8.19167 6.42388 8.36112L6.19298 8.55197C5.86807 8.23626 5.57586 7.95266 5.32657 7.71365C5.88442 7.54242 6.39936 7.26774 6.82848 6.89139C7.25964 6.51682 7.57432 6.06913 7.77049 5.58219C8.94546 6.50612 11.0522 8.156 12.9179 9.58649C12.6297 9.78804 12.3477 9.99673 12.0678 10.2054C11.7613 10.4355 11.4589 10.6709 11.1605 10.9082C10.8601 11.1454 10.5638 11.3862 10.2696 11.627L9.83026 11.9926L9.76282 12.0479C9.49513 11.7804 9.21927 11.5093 8.94341 11.2364L8.97611 11.206L9.35823 10.8636C9.60957 10.6335 9.86091 10.4016 10.1061 10.1662C10.3534 9.93252 10.5986 9.69529 10.8377 9.4545C11.0767 9.21192 11.3158 8.97113 11.5426 8.71785C11.5569 8.7018 11.5569 8.68039 11.5426 8.66256C11.5263 8.64294 11.4936 8.63937 11.4711 8.65364C11.1789 8.84984 10.899 9.05496 10.619 9.26186C10.3411 9.46877 10.0652 9.67924 9.79347 9.89149C9.52374 10.1055 9.25401 10.3214 8.98837 10.5372L8.5899 10.8671L8.57764 10.8779C8.29974 10.605 8.02183 10.3338 7.7521 10.0699L8.077 9.77555C8.29974 9.56865 8.52247 9.36175 8.74111 9.15128C8.95976 8.94081 9.17636 8.72677 9.38888 8.51095C9.59935 8.29156 9.81186 8.07573 10.0101 7.84564C10.0223 7.83137 10.0244 7.80997 10.0101 7.79213C9.99373 7.77251 9.96103 7.76895 9.93856 7.78322C9.67496 7.95445 9.42157 8.13638 9.17023 8.31831C8.91889 8.50024 8.67368 8.68753 8.42847 8.87481C8.18531 9.06566 7.94623 9.25651 7.70715 9.45093Z" fill="#1ED5C3"/>
<path d="M3.99899 2.25089C2.93029 2.1956 1.9331 2.78599 1.56733 3.65998C1.24447 4.4323 1.51011 5.42223 2.36835 5.84852C1.81254 5.00485 1.75737 3.87937 2.57882 3.14807C3.39619 2.41677 4.71419 2.40964 5.63168 3.00181C5.25569 2.55412 4.63041 2.283 3.99899 2.25089ZM10.352 20.9222C11.2879 19.9679 12.2258 19.0137 13.1637 18.0594C14.0771 17.1283 14.9905 16.1991 15.9039 15.268C16.3657 14.7989 16.8255 14.328 17.2873 13.8589C16.2104 14.7811 15.1356 15.705 14.0567 16.6271C12.9103 17.6099 11.7619 18.5945 10.6135 19.5791C10.0925 20.0268 9.56934 20.4745 9.04623 20.9222C9.506 21.3235 9.96781 21.7248 10.4276 22.1261C10.4031 21.7248 10.3765 21.3235 10.352 20.9222ZM79.021 16.7092C78.0646 15.8887 77.1063 15.0682 76.1479 14.2477C75.9967 14.1175 75.8455 13.9873 75.6943 13.8589C76.7078 14.8899 77.7213 15.9226 78.7349 16.9535C79.73 17.9684 80.7272 18.9833 81.7223 19.9964C81.9308 20.2087 82.1372 20.4192 82.3435 20.6296C82.4192 20.7063 82.599 20.8294 82.6317 20.9275C82.6501 20.981 82.6215 21.0791 82.6174 21.1344C82.6092 21.2753 82.601 21.4162 82.5908 21.5554C82.5785 21.7462 82.5663 21.9353 82.5561 22.1261C83.0158 21.7248 83.4756 21.3235 83.9374 20.9222C83.3632 20.4299 82.789 19.9394 82.2148 19.4471C81.3647 18.7176 80.5147 17.9898 79.6646 17.2603C79.4501 17.0766 79.2355 16.8929 79.021 16.7092ZM90.8033 2.83772C89.8408 2.04756 88.1693 2.02615 87.352 3.00181C88.2674 2.40964 89.5854 2.41677 90.4048 3.14807C91.2242 3.87937 91.1691 5.00485 90.6153 5.84852C91.1793 5.5667 91.5103 5.00485 91.5491 4.45014C91.592 3.84726 91.2937 3.25509 90.8033 2.83772ZM70.6123 66.498C70.1076 66.8013 69.5947 67.0956 69.0797 67.3845C70.8534 68.419 72.6394 69.4339 74.458 70.406C75.4123 70.9179 76.3768 71.4209 77.3678 71.8775C78.4304 72.368 79.5543 72.7444 80.67 73.1279C81.3974 73.3776 82.129 73.622 82.8687 73.8467C81.7264 73.2117 80.5923 72.5678 79.4644 71.915C77.7111 70.9019 75.9313 69.8941 74.2925 68.7419C73.1196 67.9161 71.9364 67.1312 70.6123 66.498ZM77.0981 19.984C76.4319 20.5422 75.7658 21.1005 75.0996 21.657C74.1842 22.424 73.2687 23.191 72.3533 23.9562C72.294 24.0061 72.1469 24.0899 72.1142 24.1577C72.0836 24.2255 72.151 24.3878 72.1632 24.4645C72.1878 24.6232 72.2123 24.7838 72.2348 24.9443C72.2756 25.2172 72.3124 25.4883 72.3472 25.7612C73.1604 25.046 73.9717 24.3289 74.785 23.6137C75.8107 22.7094 76.8365 21.8033 77.8644 20.899C77.8909 20.8776 77.9809 20.8223 77.989 20.7884C78.0013 20.7492 77.9543 20.7295 77.9093 20.6921C77.6396 20.4548 77.3678 20.2212 77.0981 19.984ZM14.9783 20.7759C15.6158 21.3378 16.2534 21.8996 16.8909 22.4615C17.9065 23.3569 18.9221 24.2522 19.9397 25.1476C20.1706 25.3528 20.4035 25.5561 20.6344 25.7612C20.6712 25.4794 20.71 25.1994 20.7489 24.9175C20.7734 24.7659 20.7959 24.6143 20.8204 24.4645C20.8306 24.3985 20.896 24.213 20.8653 24.1559C20.8224 24.0757 20.6671 23.99 20.5956 23.9294C20.1134 23.5245 19.6291 23.1196 19.1468 22.7147C18.1026 21.8425 17.0585 20.9685 16.0163 20.0946C15.9938 20.0749 15.9264 19.9982 15.8958 19.9929C15.8549 19.9893 15.7956 20.0607 15.7609 20.091C15.4993 20.3193 15.2398 20.5476 14.9783 20.7759ZM70.1709 50.0956C69.5599 52.3127 68.8652 54.5119 68.199 56.7183C69.3862 53.1242 70.6961 49.5498 71.4317 45.8558C71.8036 43.9991 72.0263 42.1013 71.9242 40.2159C71.8751 39.3081 71.7546 38.4037 71.5318 37.5173C71.3091 36.6308 70.9719 35.7746 70.5755 34.9363C69.7908 33.2722 68.8407 31.6722 67.9518 30.0509C67.7229 29.6335 67.4981 29.2144 67.2897 28.7881C67.0833 28.3707 66.9035 27.948 66.6624 27.5449C66.1822 26.7422 65.5998 25.986 65.0133 25.2404C63.8363 23.7475 62.5367 22.3188 61.1717 20.9525C59.8108 19.5898 58.3416 18.3216 57.0399 16.9161C55.7097 15.4785 54.4816 13.9677 53.088 12.5782C51.8517 11.3457 50.2435 9.87779 48.2083 9.94557C44.0213 10.0847 40.9644 13.0901 38.6267 15.8031C36.0908 18.7425 33.9269 21.9103 31.534 24.9354C30.7167 25.9699 29.8605 26.9759 29.1207 28.0568C28.0827 29.5729 27.1897 31.1639 26.356 32.7728C25.463 34.4975 24.6457 36.2544 23.8712 38.022C23.1172 39.7468 22.6492 41.5198 22.5226 43.3641C22.2753 47.0009 23.2173 50.6664 24.8418 54.0036C25.2342 54.8116 25.6674 55.6053 26.1639 56.3669C25.3016 54.9311 24.6436 53.4007 24.1021 51.8525C23.53 50.2204 23.1315 48.5438 22.9333 46.844C22.7371 45.1335 22.7616 43.3998 23.0825 41.7017C23.2398 40.8759 23.4646 40.0608 23.7588 39.2652C24.0572 38.4644 24.425 37.6831 24.7805 36.9019C26.1925 33.7948 27.7251 30.6734 29.7583 27.8285C30.2508 27.14 30.7943 26.4818 31.3317 25.8165C31.908 25.1066 32.4699 24.3878 33.0257 23.6654C34.0965 22.2742 35.1427 20.8669 36.2094 19.4721C37.2597 18.1022 38.3284 16.7359 39.4993 15.441C40.6293 14.1907 41.8594 12.9742 43.3204 12.0093C44.7815 11.0407 46.5593 10.3219 48.4269 10.3308C49.324 10.3344 50.1434 10.7322 50.8361 11.1977C51.5656 11.6864 52.2052 12.2732 52.808 12.8743C54.0688 14.1372 55.1988 15.4945 56.3963 16.8037C56.9929 17.4565 57.6039 18.0986 58.2517 18.714C58.8892 19.3204 59.5513 19.9055 60.1827 20.5173C61.4517 21.748 62.6573 23.0287 63.7934 24.3521C64.9214 25.6702 66.0555 27.049 66.7686 28.5776C67.4838 30.1098 68.3891 31.5724 69.2044 33.0635C70.0177 34.5546 70.8085 36.0761 71.2151 37.6956C72.0386 40.9776 71.5318 44.4289 70.7839 47.6859C70.6 48.4921 70.3937 49.2947 70.1709 50.0956ZM66.4213 61.2666C64.997 63.2554 63.1661 64.9712 60.9142 66.2644C60.0989 66.7317 59.2856 67.2026 58.4724 67.6735C57.9595 67.9713 57.4445 68.2692 56.9316 68.5671C55.8118 69.2181 54.69 69.8692 53.5682 70.5202C52.3053 71.2533 51.0425 71.9863 49.7797 72.7212C48.854 73.2581 47.9304 73.7932 47.0068 74.3301C46.8821 74.4032 46.7554 74.4763 46.6308 74.5477C46.5797 74.578 46.4959 74.6511 46.4346 74.6618C46.4264 74.6636 46.4162 74.6779 46.408 74.6779C46.3774 74.6779 46.2691 74.5762 46.2405 74.5548C46.1649 74.4995 46.0893 74.4442 46.0137 74.3907C45.8645 74.2819 45.7133 74.1731 45.5621 74.0625C44.9695 73.6362 44.3728 73.2099 43.7741 72.789C41.4303 71.1373 39.064 69.5053 36.6139 67.9767C35.9171 67.5433 35.2163 67.1116 34.4929 66.7121C33.7082 66.2787 32.9276 65.8827 32.2472 65.3226C31.2745 64.52 30.4776 63.5693 29.7685 62.5811C29.0022 61.511 28.3259 60.3908 27.721 59.2439C27.4227 58.6785 27.1427 58.106 26.875 57.5281C27.3307 58.8212 27.9376 60.0787 28.6262 61.2898C29.2658 62.4135 30.0035 63.5015 30.8944 64.4879C31.344 64.9855 31.8364 65.4617 32.3902 65.8756C32.8112 66.1895 33.2689 66.4463 33.7389 66.6996C34.2763 66.9903 34.8055 67.2918 35.3266 67.6075C37.9074 69.1753 40.3779 70.8823 42.8198 72.6088C43.4369 73.0458 44.052 73.4864 44.667 73.927C44.9776 74.1517 45.2903 74.3764 45.6009 74.6012C45.7501 74.71 45.9013 74.8188 46.0525 74.9276C46.1547 75.0025 46.2773 75.1363 46.4285 75.1149C46.5899 75.0935 46.7759 74.9329 46.9046 74.858C47.7996 74.3318 48.6926 73.8092 49.5856 73.2848C50.8892 72.5197 52.1929 71.7545 53.4966 70.9893C54.6818 70.2937 55.8691 69.598 57.0542 68.9006C57.5978 68.5831 58.1393 68.2639 58.6828 67.9464C59.7352 67.3274 60.8019 66.721 61.8256 66.0664C64.1571 64.5788 65.9697 62.5045 67.2284 60.2481C67.5594 59.6595 67.8496 59.0531 68.0969 58.4342C67.6412 59.4205 67.067 60.3659 66.4213 61.2666ZM54.6553 34.0463C54.6553 34.626 55.6831 34.6224 55.6831 34.0463C55.6831 33.4684 54.6553 33.4684 54.6553 34.0463ZM54.4775 34.5118C54.1771 34.1729 54.2588 33.6735 54.6594 33.4238C55.0517 33.1794 55.6055 33.2668 55.8854 33.6075C56.151 33.9321 56.0734 34.3941 55.7178 34.6438C55.3398 34.9078 54.7738 34.8454 54.4775 34.5118ZM23.5381 67.2062C23.6505 67.2704 23.765 67.3346 23.8794 67.3988C22.0996 68.4369 20.3034 69.4553 18.4766 70.431C17.5325 70.9358 16.5823 71.4334 15.6015 71.8847C14.5348 72.3752 13.4069 72.7515 12.2871 73.135C11.5678 73.3812 10.8444 73.6255 10.1149 73.8467C11.3471 73.16 12.5732 72.4644 13.791 71.7563C15.6219 70.695 17.4528 69.6248 19.153 68.4066C19.8804 67.8857 20.6487 67.4041 21.4477 66.9707C21.7072 66.8298 21.9954 66.6336 22.2835 66.5409C22.2937 66.5373 22.3305 66.5123 22.3427 66.5105C22.3897 66.5105 22.5021 66.6051 22.543 66.63C22.6452 66.6907 22.7494 66.7513 22.8515 66.812C23.0804 66.944 23.3093 67.076 23.5381 67.2062Z" fill="white"/>
<path d="M119.491 42.9441H108.115C107.659 42.9441 107.323 42.8481 107.107 42.6561C106.915 42.4401 106.819 42.1041 106.819 41.6481V37.4361C106.819 36.9801 106.915 36.6561 107.107 36.4641C107.323 36.2481 107.659 36.1401 108.115 36.1401H117.799C118.111 36.1401 118.339 36.0441 118.483 35.8521C118.651 35.6361 118.735 35.3841 118.735 35.0961C118.735 34.6881 118.651 34.3881 118.483 34.1961C118.339 34.0041 118.111 33.8961 117.799 33.8721L112.399 33.1161C110.719 32.8761 109.363 32.3241 108.331 31.4601C107.323 30.5961 106.819 29.1561 106.819 27.1401V23.3601C106.819 21.3201 107.479 19.7601 108.799 18.6801C110.119 17.5761 111.943 17.0241 114.271 17.0241H124.351C124.807 17.0241 125.131 17.1321 125.323 17.3481C125.539 17.5401 125.647 17.8641 125.647 18.3201V22.6041C125.647 23.0601 125.539 23.3961 125.323 23.6121C125.131 23.8041 124.807 23.9001 124.351 23.9001H115.963C115.651 23.9001 115.411 24.0081 115.243 24.2241C115.075 24.4161 114.991 24.6681 114.991 24.9801C114.991 25.2921 115.075 25.5561 115.243 25.7721C115.411 25.9881 115.651 26.1081 115.963 26.1321L121.327 26.8521C123.007 27.0921 124.363 27.6441 125.395 28.5081C126.427 29.3721 126.943 30.8121 126.943 32.8281V36.6081C126.943 38.6481 126.271 40.2201 124.927 41.3241C123.607 42.4041 121.795 42.9441 119.491 42.9441ZM144.309 42.9441H132.177C131.721 42.9441 131.385 42.8481 131.169 42.6561C130.977 42.4401 130.881 42.1041 130.881 41.6481V18.3201C130.881 17.8641 130.977 17.5401 131.169 17.3481C131.385 17.1321 131.721 17.0241 132.177 17.0241H144.309C147.309 17.0241 149.529 17.6241 150.969 18.8241C152.433 20.0241 153.165 21.8721 153.165 24.3681V35.6001C153.165 38.0961 152.433 39.9441 150.969 41.1441C149.529 42.3441 147.309 42.9441 144.309 42.9441ZM139.053 23.9001V36.1401H143.337C143.913 36.1401 144.333 35.9961 144.597 35.7081C144.885 35.4201 145.029 34.9761 145.029 34.3761V25.6281C145.029 25.0281 144.885 24.5961 144.597 24.3321C144.333 24.0441 143.913 23.9001 143.337 23.9001H139.053ZM158.461 42.9441C158.005 42.9441 157.669 42.8481 157.453 42.6561C157.261 42.4401 157.165 42.1041 157.165 41.6481V37.3641C157.165 36.9081 157.261 36.5841 157.453 36.3921C157.669 36.1761 158.005 36.0681 158.461 36.0681H162.025V23.9721H158.461C158.005 23.9721 157.669 23.8761 157.453 23.6841C157.261 23.4681 157.165 23.1321 157.165 22.6761V18.3201C157.165 17.8641 157.261 17.5401 157.453 17.3481C157.669 17.1321 158.005 17.0241 158.461 17.0241H173.797C174.253 17.0241 174.577 17.1321 174.769 17.3481C174.985 17.5401 175.093 17.8641 175.093 18.3201V22.6761C175.093 23.1321 174.985 23.4681 174.769 23.6841C174.577 23.8761 174.253 23.9721 173.797 23.9721H170.305V36.0681H173.797C174.253 36.0681 174.577 36.1761 174.769 36.3921C174.985 36.5841 175.093 36.9081 175.093 37.3641V41.6481C175.093 42.1041 174.985 42.4401 174.769 42.6561C174.577 42.8481 174.253 42.9441 173.797 42.9441H158.461Z" fill="black"/>
<path d="M114.864 60H110.472C108.972 60 107.856 59.7 107.124 59.1C106.404 58.5 106.044 57.576 106.044 56.328V50.73C106.044 49.482 106.404 48.558 107.124 47.958C107.856 47.346 108.972 47.04 110.472 47.04H114.864C115.092 47.04 115.254 47.094 115.35 47.202C115.458 47.298 115.512 47.46 115.512 47.688V49.866C115.512 50.094 115.458 50.262 115.35 50.37C115.254 50.466 115.092 50.514 114.864 50.514H111.246C110.874 50.514 110.598 50.592 110.418 50.748C110.238 50.892 110.148 51.114 110.148 51.414V55.698C110.148 55.998 110.238 56.22 110.418 56.364C110.598 56.496 110.874 56.562 111.246 56.562H114.864C115.092 56.562 115.254 56.616 115.35 56.724C115.458 56.82 115.512 56.982 115.512 57.21V59.352C115.512 59.58 115.458 59.748 115.35 59.856C115.254 59.952 115.092 60 114.864 60ZM127.355 60H118.193C117.965 60 117.797 59.952 117.689 59.856C117.593 59.748 117.545 59.58 117.545 59.352V47.688C117.545 47.46 117.593 47.298 117.689 47.202C117.797 47.094 117.965 47.04 118.193 47.04H120.983C121.211 47.04 121.373 47.094 121.469 47.202C121.577 47.298 121.631 47.46 121.631 47.688V56.598H124.097V53.682C124.097 53.454 124.145 53.292 124.241 53.196C124.349 53.088 124.517 53.034 124.745 53.034H127.355C127.583 53.034 127.745 53.088 127.841 53.196C127.949 53.292 128.003 53.454 128.003 53.682V59.352C128.003 59.58 127.949 59.748 127.841 59.856C127.745 59.952 127.583 60 127.355 60ZM141.094 56.598C141.094 57.15 141.01 57.654 140.842 58.11C140.686 58.554 140.398 58.938 139.978 59.262C139.57 59.574 139.006 59.82 138.286 60C137.566 60.18 136.648 60.27 135.532 60.27C134.416 60.27 133.498 60.18 132.778 60C132.058 59.82 131.488 59.574 131.068 59.262C130.66 58.938 130.372 58.554 130.204 58.11C130.048 57.654 129.97 57.15 129.97 56.598V47.688C129.97 47.46 130.018 47.298 130.114 47.202C130.222 47.094 130.39 47.04 130.618 47.04H133.444C133.672 47.04 133.834 47.094 133.93 47.202C134.038 47.298 134.092 47.46 134.092 47.688V55.896C134.092 56.136 134.182 56.34 134.362 56.508C134.542 56.664 134.944 56.742 135.568 56.742C136.204 56.742 136.612 56.664 136.792 56.508C136.972 56.34 137.062 56.136 137.062 55.896V47.688C137.062 47.46 137.11 47.298 137.206 47.202C137.314 47.094 137.482 47.04 137.71 47.04H140.446C140.674 47.04 140.836 47.094 140.932 47.202C141.04 47.298 141.094 47.46 141.094 47.688V56.598ZM151.05 60H144.138C143.91 60 143.742 59.952 143.634 59.856C143.538 59.748 143.49 59.58 143.49 59.352V47.688C143.49 47.46 143.538 47.298 143.634 47.202C143.742 47.094 143.91 47.04 144.138 47.04H149.88C151.056 47.04 151.926 47.268 152.49 47.724C153.054 48.168 153.336 48.858 153.336 49.794V50.658C153.336 51.162 153.246 51.576 153.066 51.9C152.898 52.212 152.634 52.446 152.274 52.602C153.042 52.674 153.612 52.938 153.984 53.394C154.356 53.85 154.542 54.516 154.542 55.392V57.048C154.542 58.056 154.254 58.8 153.678 59.28C153.114 59.76 152.238 60 151.05 60ZM147.54 50.1V52.044H149.07C149.298 52.044 149.466 51.984 149.574 51.864C149.694 51.744 149.754 51.564 149.754 51.324V50.82C149.754 50.58 149.694 50.4 149.574 50.28C149.466 50.16 149.298 50.1 149.07 50.1H147.54ZM147.54 54.816V56.94H149.88C150.108 56.94 150.276 56.88 150.384 56.76C150.504 56.64 150.564 56.46 150.564 56.22V55.518C150.564 55.278 150.504 55.104 150.384 54.996C150.276 54.876 150.108 54.816 149.88 54.816H147.54Z" fill="black"/>
</svg>
